<?xml version="1.0" standalone="no"?>
<!DOCTYPE svg PUBLIC "-//W3C//DTD SVG 1.1//EN" "http://www.w3.org/Graphics/SVG/1.1/DTD/svg11.dtd" >
<svg xmlns="http://www.w3.org/2000/svg">
<defs>
  <font id="Barberry" horiz-adv-x="256">
    <font-face font-family="Barberry"
      units-per-em="256" ascent="256"
      descent="0" />
    <missing-glyph horiz-adv-x="0" />
    <glyph glyph-name="bb-menu-left"
      unicode="&#xEA02;"
      horiz-adv-x="256" d="M2.455 205.545C-0.734 202.357 -0.735 198.085 2.452 194.646L4.905 192L128 192L251.095 192L253.548 194.646C256.735 198.085 256.734 202.357 253.545 205.545L251.091 208L128 208L4.909 208L2.455 205.545M2.455 125.545C-0.734 122.357 -0.735 118.085 2.452 114.646L4.905 112L128 112L251.095 112L253.548 114.646C256.735 118.085 256.734 122.357 253.545 125.545L251.091 128L128 128L4.909 128L2.455 125.545M2.455 45.545C-0.734 42.357 -0.735 38.085 2.452 34.646L4.905 32L72 32L139.095 32L141.548 34.646C144.735 38.085 144.734 42.357 141.545 45.545L139.091 48L72 48L4.909 48L2.455 45.545" />
    <glyph glyph-name="bb-menu-full"
      unicode="&#xEA03;"
      horiz-adv-x="256" d="M18.455 221.545C15.266 218.357 15.265 214.085 18.452 210.646L20.905 208L136 208L251.095 208L253.548 210.646C256.735 214.085 256.734 218.357 253.545 221.545L251.091 224L136 224L20.909 224L18.455 221.545M18.455 125.545C15.266 122.357 15.265 118.085 18.452 114.646L20.905 112L136 112L251.095 112L253.548 114.646C256.735 118.085 256.734 122.357 253.545 125.545L251.091 128L136 128L20.909 128L18.455 125.545M18.455 29.545C15.266 26.357 15.265 22.085 18.452 18.646L20.905 16L136 16L251.095 16L253.548 18.646C256.735 22.085 256.734 26.357 253.545 29.545L251.091 32L136 32L20.909 32L18.455 29.545" />
    <glyph glyph-name="bb-cart-16"
      unicode="&#xEA04;"
      horiz-adv-x="256" d="M2.455 253.545C-0.734 250.357 -0.735 246.085 2.452 242.646L4.905 240L26.452 240L48 240L48 170.646L48 101.292L50.452 98.646L52.905 96L135.841 96C213.353 96 218.917 96.114 220.903 97.75C222.556 99.112 226.682 112.299 239.514 157.236C248.581 188.991 256 215.9 256 217.034C256 218.168 254.809 220.199 253.354 221.548L250.708 224L175.809 224L100.909 224L98.455 221.545C95.266 218.357 95.265 214.085 98.452 210.646L100.905 208L169.061 208L237.217 208L236.536 205.25C235.815 202.337 215.274 130.212 211.901 118.75L209.915 112L136.958 112L64 112L64 181.545L64 251.091L61.545 253.545L59.091 256L32 256L4.909 256L2.455 253.545M56.734 62.97C47.404 60.627 39.095 53.89 34.812 45.193C32.946 41.404 32.5 38.862 32.5 32C32.5 21.879 34.692 16.466 41.579 9.579C52.752 -1.594 69.733 -3.061 82.421 6.051C103.042 20.86 99.331 51.659 75.744 61.47C70.969 63.456 61.609 64.195 56.734 62.97M200.734 62.97C191.404 60.627 183.095 53.89 178.812 45.193C176.946 41.404 176.5 38.862 176.5 32C176.5 21.879 178.692 16.466 185.579 9.579C196.752 -1.594 213.733 -3.061 226.421 6.051C247.042 20.86 243.331 51.659 219.744 61.47C214.969 63.456 205.609 64.195 200.734 62.97M70.655 46.359C80.696 41.595 82.921 29.206 75.194 21.084C71.075 16.753 66.43 15.321 60.259 16.479C55.492 17.373 49.351 23.614 48.435 28.493C45.956 41.707 58.761 52.003 70.655 46.359M214.655 46.359C224.696 41.595 226.921 29.206 219.194 21.084C215.075 16.753 210.43 15.321 204.259 16.479C199.492 17.373 193.351 23.614 192.435 28.493C189.956 41.707 202.761 52.003 214.655 46.359" />
    <glyph glyph-name="bb-heart-gl"
      unicode="&#xEA05;"
      horiz-adv-x="256" d="M234.912 218.912C206.8 247.024 161.2 247.024 133.088 218.912C131.152 216.976 129.664 214.768 128 212.688C126.336 214.768 124.848 216.976 122.912 218.912C94.8 247.024 49.2 247.024 21.088 218.912C-7.024 190.8 -7.024 145.2 21.088 117.088L128 16L234.912 117.088C263.024 145.2 263.024 190.8 234.912 218.912z" />
    <glyph glyph-name="bb-heart-line"
      unicode="&#xEA06;"
      horiz-adv-x="256" d="M56.5 238.364C52.65 237.554 45.239 234.833 40.032 232.317C31.97 228.422 29.21 226.388 21.447 218.622C13.731 210.902 11.617 208.04 7.693 200C-2.566 178.981 -2.592 157.268 7.616 136L12.175 126.5L40.915 98C56.722 82.325 82.086 57.463 97.28 42.75C121.348 19.444 125.304 16 128.005 16C130.713 16 134.857 19.64 160.739 44.75C177.038 60.562 202.384 85.425 217.062 100C243.606 126.356 243.776 126.552 248.324 136C258.587 157.323 258.581 178.95 248.307 200C244.383 208.04 242.269 210.902 234.553 218.622C226.784 226.395 224.036 228.419 215.968 232.311C188.396 245.614 157.366 241.227 135.662 220.958L128 213.802L120.338 220.958C103.499 236.684 79.551 243.214 56.5 238.364M86.43 222.018C99.464 218.684 110.95 210.235 118.508 198.42C124.848 188.509 129.711 187.848 135.737 196.079C144.011 207.379 146.907 210.449 153.299 214.699C175.706 229.595 205.401 226.236 224.189 206.681C243.652 186.424 245.177 154.159 227.664 133.197C222.955 127.56 129.059 36 127.988 36C127.106 36 34.115 126.508 29.126 132.222C14.601 148.859 11.959 173.809 22.583 194.026C34.705 217.095 60.854 228.559 86.43 222.018" />
    <glyph glyph-name="bb-favourite-line"
      unicode="&#xEA07;"
      horiz-adv-x="256" d="M115.05 199.181C97.464 163.758 96.537 162.138 93.585 161.632C91.888 161.341 74.3 158.798 54.5 155.981C34.7 153.164 17.839 150.642 17.031 150.377C16.065 150.06 25.612 140.07 44.917 121.197L74.271 92.5L67.337 52.25C63.523 30.112 60.649 12.009 60.951 12.02C61.253 12.032 77.657 20.57 97.405 30.993L133.311 49.946L169.337 30.988C189.151 20.561 205.531 12.198 205.736 12.403C205.942 12.608 203.194 29.814 199.631 50.638C196.067 71.462 193.005 89.491 192.826 90.702C192.567 92.451 198.391 98.628 221.11 120.702C236.846 135.991 249.798 148.94 249.893 149.478C249.99 150.022 234.214 152.76 214.283 155.657C194.602 158.518 176.535 161.151 174.134 161.508L169.768 162.157L151.598 199.18L133.429 236.202L115.05 199.181M192.551 148.142C209.023 145.746 223.829 143.535 225.453 143.228C228.317 142.686 227.683 141.965 204.639 119.584L180.872 96.5L186.461 64.108C189.535 46.293 191.926 31.618 191.775 31.499C191.624 31.379 178.405 38.194 162.401 46.642L133.302 62.003L104.593 46.893C88.803 38.582 75.644 32.023 75.35 32.317C75.056 32.611 77.269 47.158 80.267 64.643L85.718 96.435L62.251 119.434C41.149 140.114 39.021 142.494 41.142 143.047C42.439 143.386 57.053 145.633 73.618 148.042L103.737 152.421L118.599 182.198L133.461 211.976L148.032 182.236L162.602 152.496L192.551 148.142" />
    <glyph glyph-name="bb-favourite-gl"
      unicode="&#xEA08;"
      horiz-adv-x="256" d="M135.9573333333334 240.384L169.1306666666667 173.184L243.3066666666667 162.3893333333334A8.864 8.864 0 0 0 248.224 147.264L194.5386666666667 94.9973333333334L207.2106666666667 21.12A8.874666666666666 8.874666666666666 0 0 0 194.336 11.7653333333334L128 46.592L61.6533333333333 11.7333333333333A8.885333333333334 8.885333333333334 0 0 0 48.7786666666667 21.0986666666667L61.4506666666667 94.9333333333333L7.7653333333333 147.2A8.864 8.864 0 0 0 12.6826666666667 162.3253333333333L86.8586666666667 173.1733333333334L120.032 240.3733333333334A8.885333333333334 8.885333333333334 0 0 0 135.9573333333334 240.384z" />
    <glyph glyph-name="bb-discount"
      unicode="&#xEA09;"
      horiz-adv-x="256" d="M16.008 238.684C10.952 237.074 2.438 228.401 1.102 223.5C0.424 221.014 0.009 207.727 0.006 188.396L0 157.292L2.452 154.646C4.114 152.853 5.93 152 8.086 152C14.186 152 19.387 149.652 24.654 144.521C29.971 139.34 31.983 134.844 31.994 128.116C32.015 115.668 20.449 104 8.089 104C6.046 104 4.031 103.122 2.455 101.545L0 99.091L0 67.911C0 46.354 0.375 35.462 1.216 32.616C2.839 27.123 11.123 18.839 16.616 17.216C22.56 15.46 233.44 15.46 239.384 17.216C244.877 18.839 253.161 27.123 254.784 32.616C255.608 35.405 256 45.495 256 63.911L256 91.091L253.545 93.545C251.969 95.122 249.954 96 247.911 96C235.551 96 223.985 107.668 224.006 120.116C224.026 132.587 235.451 144 247.914 144C250.07 144 251.886 144.853 253.548 146.646L256 149.292L255.994 184.396C255.991 206.616 255.589 220.968 254.898 223.5C253.463 228.762 244.998 237.095 239.384 238.771C233.778 240.445 21.278 240.362 16.008 238.684M237.545 221.545L240 219.091L240 189.204L240 159.317L235.792 158.056C225.622 155.009 216.434 146.515 211.317 135.43C208.956 130.316 208.574 128.192 208.54 120C208.504 111.347 208.785 109.899 211.693 103.759C216.71 93.168 227.262 84.029 237.25 81.624L240 80.962L240 59.127C240 37.336 239.995 37.287 237.548 34.646L235.095 32L128 32L20.905 32L18.452 34.646L16 37.292L16 63.127L16 88.962L18.75 89.624C28.758 92.034 39.309 101.18 44.283 111.759C47.152 117.859 47.452 119.404 47.442 128C47.433 136.236 47.067 138.289 44.689 143.43C39.558 154.522 30.374 163.01 20.208 166.056L16 167.317L16 193.204L16 219.091L18.455 221.545L20.909 224L128 224L235.091 224L237.545 221.545M82.455 173.545C79.266 170.357 79.265 166.085 82.452 162.646L84.905 160L128 160L171.095 160L173.548 162.646C176.735 166.085 176.734 170.357 173.545 173.545L171.091 176L128 176L84.909 176L82.455 173.545M82.455 93.545C79.266 90.357 79.265 86.085 82.452 82.646L84.905 80L128 80L171.095 80L173.548 82.646C176.735 86.085 176.734 90.357 173.545 93.545L171.091 96L128 96L84.909 96L82.455 93.545" />
    <glyph glyph-name="bb-user-16"
      unicode="&#xEA0A;"
      horiz-adv-x="256" d="M108.5 254.445C52.322 244.952 9.966 202.042 1.455 146C-4.588 106.211 9.673 64.918 39.355 36.262C89.301 -11.958 166.699 -11.958 216.645 36.262C255.947 74.206 266.864 132.133 244.028 181.562C231.769 208.095 209.445 230.593 182.581 243.487C160.111 254.271 132.044 258.423 108.5 254.445M142.566 238.928C180.584 233.64 212.617 210.251 228.969 175.841C238.675 155.415 242.158 131.636 238.509 110.71C234.824 89.581 225.879 70.18 212.892 55.148L209.284 50.972L206.725 54.84C198.845 66.747 183.599 79.477 168.854 86.46C153.625 93.673 146.179 95.317 128.5 95.372C115.24 95.414 112.375 95.109 103.797 92.746C93.821 89.997 83.655 85.383 74 79.222C66.968 74.735 55.105 63.251 50.312 56.292L46.592 50.89L43.294 54.695C25.353 75.395 15.033 104.959 16.311 132C17.706 161.535 28.594 186.52 49 207.011C73.5 231.612 108.738 243.633 142.566 238.928M117 206.638C108.207 204.727 102 201.135 94.42 193.568C86.842 186.002 83.03 179.307 81.115 170.201C77.623 153.6 82.136 138.781 94.448 126.42C104.273 116.557 114.876 112 128 112C141.124 112 151.727 116.557 161.552 126.42C181.081 146.026 181.081 174.023 161.552 193.552C149.098 206.006 134.215 210.377 117 206.638M141.375 189.061C147.366 186.16 154.168 179.341 157.126 173.27C160.587 166.168 160.466 154.561 156.852 146.852C149.92 132.066 134.251 124.878 118.764 129.38C107.183 132.747 97.41 144.678 96.237 156.881C94.842 171.406 104.441 186.084 118.296 190.612C124.404 192.608 135.601 191.856 141.375 189.061M148.5 77.218C162.745 73.279 174.349 66.532 184.456 56.311C189.993 50.713 197.73 40.338 196.902 39.623C194.376 37.442 182.957 30.454 177.283 27.617C146.891 12.42 109.445 12.271 79.5 27.228C73.178 30.386 61.692 37.369 59.077 39.644C58.091 40.503 68.723 54.487 73.882 59.116C84.495 68.639 100.499 76.341 115.047 78.927C123.081 80.356 140.342 79.474 148.5 77.218" />
    <glyph glyph-name="bb-share-24"
      unicode="&#xEA0B;"
      horiz-adv-x="256" d="M195.105 243.48C170.459 236.566 155.074 210.425 161.37 186.156L162.739 180.876L130.795 164.898L98.851 148.919L96.729 151.71C89.493 161.223 79.842 167.142 67.444 169.67C48.37 173.56 29.224 165.09 17.96 147.779C12.661 139.635 10.657 131.387 11.163 119.808C11.523 111.579 12.012 109.516 15.148 102.965C23.729 85.046 39.258 75 58.379 75C73.259 75 84.244 79.93 94.421 91.175L99.792 97.111L131.146 81.444C148.391 72.828 162.579 65.712 162.675 65.631C162.771 65.55 162.216 62.787 161.441 59.492C157.407 42.343 161.802 27.117 174.448 14.42C184.273 4.557 194.876 0 208 0C221.124 0 231.727 4.557 241.552 14.42C261.081 34.026 261.081 62.023 241.552 81.552C233.266 89.838 226.201 93.529 215.418 95.205C199.78 97.636 186.175 93.195 174.605 81.882L167.709 75.139L135.916 91.042L104.124 106.944L104.944 109.806C106.881 116.56 107.114 124.601 105.583 131.932C104.73 136.02 104.17 139.503 104.339 139.673C104.509 139.842 118.789 146.928 136.074 155.419L167.5 170.858L171.263 166.504C184.339 151.378 205.072 145.769 223.799 152.291C244.425 159.475 257.211 178.821 255.69 200.543C255.38 204.967 254.176 211.129 253.013 214.235C248.582 226.079 237.189 237.492 225.243 242.055C217.711 244.933 202.796 245.638 195.105 243.48M213.862 233.953C224.202 232.275 231.342 227.81 238.334 218.65C245.57 209.17 247.104 193.221 241.866 181.94C238.787 175.309 230.881 167.089 224.708 164.101C214.592 159.204 201.408 159.204 191.292 164.101C185.136 167.081 177.225 175.294 174.108 181.94C171.842 186.771 171.5 188.811 171.5 197.5C171.5 206.356 171.811 208.133 174.218 213.033C179.465 223.718 190.274 232.064 201.226 233.888C204.127 234.371 206.725 234.815 207 234.876C207.275 234.936 210.363 234.52 213.862 233.953M72.351 157.425C79.411 154.978 88.94 145.719 92.579 137.773C95.06 132.352 95.452 130.277 95.46 122.5C95.467 114.838 95.072 112.65 92.804 107.782C89.356 100.381 82.106 92.688 75.563 89.487C52.758 78.33 25.485 92.344 21.998 117.012C19.91 131.786 25.989 145.392 38.536 154.024C47.016 159.859 61.21 161.287 72.351 157.425M224.155 81.238C231.681 77.525 237.731 71.564 241.65 64C244.227 59.028 244.5 57.541 244.5 48.5C244.5 39.637 244.179 37.805 241.676 32.39C238.318 25.122 231.637 18.304 224 14.349C218.977 11.747 217.589 11.5 208 11.5C198.411 11.5 197.023 11.747 192 14.349C184.363 18.304 177.682 25.122 174.324 32.39C171.821 37.805 171.5 39.637 171.5 48.5C171.5 57.542 171.773 59.027 174.351 64C181.648 78.075 193.93 85.268 209.655 84.676C216.392 84.422 218.912 83.824 224.155 81.238" />
    <glyph glyph-name="bb-share-16"
      unicode="&#xEA0C;"
      horiz-adv-x="256" d="M181 254.638C172.207 252.727 166 249.135 158.42 241.568C145.76 228.928 141.354 213.586 145.48 196.5C146.277 193.2 146.945 190.208 146.964 189.851C146.984 189.494 136.406 182.607 123.457 174.547L99.914 159.892L95.003 164.307C81.598 176.359 60.11 179.274 43.2 171.335C35.68 167.804 24.215 156.38 20.785 149C14.466 135.402 14.483 120.62 20.832 107C24.251 99.667 35.73 88.163 43 84.785C60.741 76.541 81.137 79.226 94.924 91.622L99.964 96.153L123.482 81.459C136.417 73.377 146.984 66.48 146.964 66.132C146.945 65.784 146.277 62.8 145.48 59.5C141.369 42.473 145.78 27.138 158.448 14.42C168.273 4.557 178.876 0 192 0C205.124 0 215.727 4.557 225.552 14.42C240.652 29.579 244.188 49.651 235.168 69C231.688 76.465 220.305 87.761 212.668 91.328C195.646 99.278 174.477 96.427 161.076 84.378L156.036 79.847L132.518 94.541C119.583 102.623 109.016 109.52 109.036 109.868C109.055 110.216 109.723 113.2 110.52 116.5C111.317 119.8 111.969 124.975 111.969 128C111.969 131.025 111.317 136.2 110.52 139.5C109.723 142.8 109.055 145.792 109.036 146.149C109.016 146.506 119.594 153.393 132.543 161.453L156.086 176.108L161.101 171.599C174.862 159.227 195.273 156.547 213 164.785C220.27 168.163 231.749 179.667 235.168 187C244.191 206.355 240.647 226.457 225.552 241.552C213.098 254.006 198.215 258.377 181 254.638M205.375 237.061C211.366 234.16 218.168 227.341 221.126 221.27C224.587 214.168 224.466 202.561 220.852 194.852C213.92 180.066 198.251 172.878 182.764 177.38C171.183 180.747 161.41 192.678 160.237 204.881C158.842 219.406 168.441 234.084 182.296 238.612C188.404 240.608 199.601 239.856 205.375 237.061M77.375 157.061C83.366 154.16 90.168 147.341 93.126 141.27C96.587 134.168 96.466 122.561 92.852 114.852C85.92 100.066 70.251 92.878 54.764 97.38C43.183 100.747 33.41 112.678 32.237 124.881C30.842 139.406 40.441 154.084 54.296 158.612C60.404 160.608 71.601 159.856 77.375 157.061M205.375 77.061C211.366 74.16 218.168 67.341 221.126 61.27C224.587 54.168 224.466 42.561 220.852 34.852C213.92 20.066 198.251 12.878 182.764 17.38C171.183 20.747 161.41 32.678 160.237 44.881C158.842 59.406 168.441 74.084 182.296 78.612C188.404 80.608 199.601 79.856 205.375 77.061" />
    <glyph glyph-name="bb-360"
      unicode="&#xEA0D;"
      horiz-adv-x="341.3333333333333" d="M0.6266666666667 128C0.6226666666667 53.192 0.9186666666667 21.1 1.3333333333333 51.3333333333333C1.7253333333333 79.9333333333333 2.2013333333333 101.5333333333334 2.388 99.3333333333333C2.9013333333333 93.3226666666667 8.4053333333333 80.888 13.2746666666667 74.7413333333334C33.3506666666667 49.3933333333333 83.8813333333333 31.0706666666667 144.4253333333333 27.188L158.8493333333333 26.2626666666667L151.124 18.4546666666667L143.3973333333333 10.6466666666667L148.3733333333333 5.672L153.3493333333333 0.696L169.668 17.0146666666667L185.9866666666667 33.3333333333333L169.668 49.652L153.3493333333333 65.9706666666667L148.3733333333333 60.9946666666667L143.3973333333333 56.02L151.3653333333333 47.908L159.3333333333333 39.7973333333334L153.3333333333333 40.5146666666667C150.0333333333333 40.908 142.2333333333333 41.6 136 42.0493333333334C82.716 45.896 34.1 65.676 20.32 89.1186666666667C15.2706666666667 97.7066666666667 15.3053333333333 108.9733333333334 20.408 117.6786666666667C28.2026666666667 130.98 47.0026666666667 143.84 68.7186666666667 150.7253333333334C73.8226666666667 152.344 78.5373333333333 154.16 79.1933333333333 154.7613333333334C80.132 155.62 77.84 168 76.744 168C75.6893333333333 168 52.7066666666667 159.7306666666667 47.7986666666667 157.5853333333333C22.924 146.712 3.6773333333333 125.552 2.3493333333333 107.616C2.176 105.2613333333333 1.7186666666667 137.8333333333334 1.3333333333333 180C0.7626666666667 242.5533333333334 0.632 232.9813333333334 0.6266666666667 128M268.172 252.5026666666667C258.8813333333333 247.8733333333334 254.3453333333333 241.084 253.5933333333333 230.688C252.8453333333333 220.3546666666667 254.972 214.62 261.928 208.208C273.0653333333334 197.9426666666667 287.3466666666667 197.492 298.2453333333333 207.0613333333333C310.3306666666666 217.672 311.3866666666667 236.312 300.52 247.1906666666667C291.4226666666667 256.2973333333333 279.6626666666667 258.2293333333334 268.172 252.5026666666667M340.64 128C340.64 57.2333333333334 340.8026666666667 28.2826666666667 341 63.6666666666667C341.1973333333333 99.0493333333334 341.1973333333333 156.9493333333334 341 192.3333333333334C340.8026666666667 227.716 340.64 198.7666666666667 340.64 128M289.164 238.5386666666667C301.0346666666667 227.4786666666667 288.9066666666667 209.4506666666667 274.1266666666667 216.1853333333334C269.6053333333333 218.2453333333334 266.2293333333334 225.6373333333334 267.392 230.932C269.4893333333333 240.4813333333334 282.2813333333334 244.9506666666667 289.164 238.5386666666667M87.3333333333333 220.0733333333333C82.5866666666667 218.1306666666667 79.936 213.848 79.0973333333333 206.7733333333334L78.2773333333333 199.8466666666667L85.472 200.2573333333334C91.7693333333333 200.616 92.72 201.04 93.0933333333333 203.6666666666667C93.4906666666667 206.4706666666667 94.1666666666667 206.6666666666667 103.4266666666667 206.6666666666667L113.3333333333333 206.6666666666667L113.3333333333333 193.3333333333334L113.3333333333333 180L103.3333333333333 180L93.3333333333333 180L93.3333333333333 172.6666666666667L93.3333333333333 165.3333333333334L103.3333333333333 165.3333333333334L113.3333333333333 165.3333333333334L113.3333333333333 148L113.3333333333333 130.6666666666667L103.3333333333333 130.6666666666667C93.556 130.6666666666667 93.3333333333333 130.7413333333333 93.3333333333333 134C93.3333333333333 137.152 92.9333333333333 137.3333333333334 86 137.3333333333334C78.8266666666667 137.3333333333334 78.6666666666667 137.2506666666667 78.6666666666667 133.532C78.6666666666667 127.652 81.2106666666667 121.72 84.72 119.4213333333333C87.1613333333333 117.8213333333334 91.6173333333333 117.3333333333334 103.7706666666667 117.3333333333334C118.94 117.3333333333334 119.784 117.48 122.988 120.6853333333334C124.832 122.5293333333334 126.7146666666667 125.904 127.1706666666667 128.1853333333334C128.5946666666667 135.3053333333334 128.092 205.6173333333333 126.5773333333334 211.0693333333333C124.32 219.1973333333334 119.4266666666667 221.34 103.3333333333333 221.244C96 221.2 88.8 220.6733333333334 87.3333333333333 220.0733333333333M141.844 219.2226666666667C139.5586666666667 218.0946666666667 137.008 215.68 136.1773333333333 213.856C135.1533333333333 211.6093333333333 134.6666666666667 196.8693333333334 134.6666666666667 168.0786666666667L134.6666666666667 125.616L138.5346666666667 121.4746666666667L142.4026666666667 117.3333333333334L158.6373333333333 117.3333333333334C174.6906666666667 117.3333333333334 174.9133333333333 117.376 178.6546666666667 121.116C183.4786666666667 125.94 184.4853333333333 132.424 183.7666666666667 154.0266666666667C183.2293333333333 170.1706666666667 183.1106666666667 170.724 179.3573333333333 174.6413333333333C175.556 178.6106666666667 175.308 178.6666666666667 161.7506666666667 178.6666666666667L148 178.6666666666667L148 192.6666666666667L148 206.6666666666667L158.6666666666667 206.6666666666667L169.3333333333333 206.6666666666667L169.3333333333333 200L169.3333333333333 193.3333333333334L176.86 193.3333333333334L184.3866666666667 193.3333333333334L183.6106666666667 202.5853333333333C182.7226666666667 213.1893333333333 180.232 217.86 174.38 219.9C168.06 222.1026666666667 146.7853333333333 221.66 141.844 219.2226666666667M201.3133333333333 218.28C197.5466666666667 216.2893333333333 194.5773333333333 213.392 192.7693333333333 209.9466666666667C190.164 204.98 190 202.5306666666667 190 168.6666666666667C190 134.7533333333333 190.1586666666667 132.396 192.7386666666667 128.004C197.824 119.3466666666667 202.5706666666667 117.332 217.864 117.3386666666667C233.0893333333334 117.344 237.9106666666667 119.216 242.7053333333334 126.988C245.2546666666667 131.1186666666667 245.3693333333333 133.248 245.0266666666667 170C244.62 213.6613333333334 244.7026666666667 213.3013333333333 233.912 218.6466666666667C225.8893333333334 222.6226666666667 209.168 222.4346666666667 201.3133333333333 218.28M229.9053333333333 204.572C231.6986666666667 202.7773333333333 232 197.656 232 169.0093333333334C232 129.124 232.5533333333333 130.6666666666667 218.232 130.6666666666667C203.3693333333333 130.6666666666667 204 129 204 168.2946666666667C204 188.64 204.5346666666667 202.508 205.38 204.088C206.5653333333334 206.3026666666667 208.244 206.6666666666667 217.2853333333333 206.6666666666667C225.0746666666667 206.6666666666667 228.3533333333333 206.1226666666667 229.9053333333333 204.572M259.98 162.5946666666667C259.16 159.5466666666667 258.7733333333333 156.3106666666667 259.1213333333334 155.404C259.4706666666667 154.496 263.412 152.7266666666667 267.8826666666667 151.4733333333334C289.1853333333334 145.496 312.48 129.4466666666667 318.8 116.392C322.736 108.26 322.7906666666667 97.352 318.932 89.8266666666667C307.4426666666667 67.4173333333333 267.9866666666667 49.5106666666667 216.1013333333333 43.1586666666667L197.3333333333333 40.8613333333333L197.3333333333333 33.7893333333334L197.3333333333333 26.7173333333334L203.6666666666667 27.4573333333333C262.1853333333334 34.292 295.672 46.0133333333333 318.904 67.7946666666667C331.7413333333334 79.8306666666667 335.3413333333333 87.6306666666667 335.3066666666666 103.3333333333333C335.2733333333333 118.5186666666667 332.3093333333333 125.152 320.0706666666667 137.436C309.752 147.7933333333334 297.4173333333333 155.2586666666667 280 161.6893333333333C260.116 169.0306666666667 261.6946666666667 168.96 259.98 162.5946666666667M169.3333333333333 148L169.3333333333333 130.6666666666667L158.6666666666667 130.6666666666667L148 130.6666666666667L148 146.6C148 165.2093333333334 148.0133333333333 165.2293333333333 161 165.2933333333334L169.3333333333333 165.3333333333334L169.3333333333333 148" />
    <glyph glyph-name="bb-tail-left-16"
      unicode="&#xEA0E;"
      horiz-adv-x="256" d="M42.263 165.737C2.801 126.275 0 123.243 0 120C0 116.757 2.801 113.725 42.263 74.263C80.791 35.735 84.817 32 87.811 32C92.037 32 96 36.047 96 40.362C96 43.062 91.867 47.572 61.769 77.716L27.539 112L139.317 112L251.095 112L253.548 114.646C256.735 118.085 256.734 122.357 253.545 125.545L251.091 128L139.328 128L27.566 128L61.783 162.311C92.613 193.227 96 196.943 96 199.857C96 204.213 92.19 208 87.809 208C84.817 208 80.779 204.253 42.263 165.737" />
    <glyph glyph-name="bb-tail-right-16"
      unicode="&#xEA0F;"
      horiz-adv-x="256" d="M162.455 205.545C160.86 203.951 160 201.957 160 199.857C160 196.943 163.387 193.227 194.217 162.311L228.434 128L116.672 128L4.909 128L2.455 125.545C-0.734 122.357 -0.735 118.085 2.452 114.646L4.905 112L116.683 112L228.461 112L194.231 77.716C164.133 47.572 160 43.062 160 40.362C160 36.047 163.963 32 168.189 32C171.183 32 175.209 35.735 213.737 74.263C253.199 113.725 256 116.757 256 120C256 123.243 253.199 126.275 213.737 165.737C175.221 204.253 171.183 208 168.191 208C166.04 208 164.064 207.154 162.455 205.545" />
    <glyph glyph-name="bb-medium-left"
      unicode="&#xEA10;"
      horiz-adv-x="256" d="M177.6 4.8L54.4 128L177.6 251.2L201.6 228.8L100.8 128L201.6 27.2z" />
    <glyph glyph-name="bb-medium-right"
      unicode="&#xEA11;"
      horiz-adv-x="256" d="M78.4 4.8L54.4 27.2L155.2 128L54.4 228.8L78.4 251.2L201.6 128z" />
    <glyph glyph-name="bb-medium-up"
      unicode="&#xEA12;"
      horiz-adv-x="256" d="M228.8 54.4L128 155.2L27.2 54.4L4.8 78.4L128 201.6L251.2 78.4z" />
    <glyph glyph-name="bb-medium-down"
      unicode="&#xEA13;"
      horiz-adv-x="256" d="M128 54.4L4.8 177.6L27.2 201.6L128 100.8L228.8 201.6L251.2 177.6z" />
    <glyph glyph-name="bb-back"
      unicode="&#xEA14;"
      horiz-adv-x="256" d="M36.561 179.102C35.18 174.487 21.83 96.837 22.331 96.335C23.428 95.239 105.357 80.956 106.101 81.732C106.507 82.154 106.988 84.495 107.17 86.934L107.5 91.369L73.75 97.395C55.188 100.709 40 103.675 40 103.986C40 104.853 52.744 114.143 59.648 118.31C73.688 126.784 93.032 133.847 109.763 136.607C121.461 138.538 143.429 138.756 154.5 137.052C181.408 132.911 206.309 121.434 227.341 103.479L235.183 96.785L238.591 100.089C240.466 101.906 242 103.741 242 104.167C242 105.396 227.159 117.735 219.758 122.658C202.682 134.018 180.711 143.007 161 146.699C147.973 149.139 118.203 149.176 105.413 146.767C84.079 142.75 57.03 130.919 41.011 118.598C38.542 116.698 36.389 115.278 36.226 115.441C36.063 115.604 38.421 129.594 41.465 146.53C44.509 163.466 47 177.641 47 178.029C47 178.417 44.759 179.178 42.02 179.72C37.768 180.56 36.971 180.47 36.561 179.102" />
    <glyph glyph-name="bb-eye"
      unicode="&#xEA15;"
      horiz-adv-x="256" d="M108.473 213.603C88.999 208.967 71.085 199.965 52.09 185.271C32.697 170.269 0 134.319 0 128C0 122.36 27.024 91.649 45.883 75.859C68.15 57.215 87.583 46.934 110 41.938C129.885 37.506 153.469 41.221 175.5 52.255C184.667 56.846 199.442 66.921 210.117 75.859C228.976 91.649 256 122.36 256 128C256 134.314 223.228 170.352 204 185.181C170.628 210.919 137.99 220.63 108.473 213.603M141.284 197.776C150.914 194.493 159.792 186.017 164.689 175.43C167.067 170.289 167.433 168.236 167.442 160C167.452 151.404 167.152 149.859 164.283 143.759C156.427 127.051 139.126 117.857 121.361 120.951C108.156 123.25 97.543 131.41 91.693 143.759C88.789 149.891 88.503 151.359 88.529 160C88.555 168.555 88.874 170.174 91.738 176.274C97.228 187.971 108.315 196.963 119.786 199.022C125.287 200.01 136.666 199.35 141.284 197.776M74.767 177.306C71.998 169.103 71.405 156.121 73.411 147.613C78.198 127.312 94.763 110.608 115.064 105.615C144.82 98.295 175.464 117.408 182.621 147.75C184.589 156.096 183.983 169.158 181.252 177.247C179.523 182.369 179.503 182.801 181.034 181.982C186.09 179.276 200.18 167.84 209.581 158.813C219.911 148.893 238 129.297 238 128.025C238 126.695 219.952 106.978 210.5 97.982C188.643 77.18 167.683 64.129 147.5 58.755C136.263 55.762 119.622 55.794 108.21 58.829C88.01 64.203 67.704 76.925 45 98.433C36.136 106.83 18 126.686 18 127.994C18 128.314 21.523 132.609 25.828 137.538C37.28 150.649 57.382 169.58 67.466 176.75C72.301 180.187 76.353 183 76.473 183C76.592 183 75.825 180.438 74.767 177.306" />
    <glyph glyph-name="bb-ruler"
      unicode="&#xEA16;"
      horiz-adv-x="256" d="M26.271 229.729C2.172 205.63 0 203.176 0 200.045C0 196.931 1.953 194.673 22.256 174.316C42.263 154.255 44.844 152 47.804 152C52.023 152 56 156.044 56 160.335C56 162.943 53.4 165.991 37.769 181.705L19.539 200.032L37.753 218.247L55.968 236.461L74.295 218.231C90.491 202.121 92.999 200 95.859 200C100.04 200 104 204.073 104 208.371C104 211.051 101.113 214.337 81.725 233.725C61.29 254.16 59.165 256 55.996 256C52.812 256 50.492 253.95 26.271 229.729M90.256 165.744C5.461 80.949 0 75.279 0 72.037C0 68.838 2.494 66.09 34.253 34.294C66.202 2.307 68.742 0 72.002 0C75.304 0 80.499 5.002 165.749 90.267C250.703 175.236 256 180.737 256 184.001C256 187.222 253.577 189.891 221.734 221.734C189.85 253.618 187.226 256 183.99 256C180.712 256 175.326 250.814 90.256 165.744M210.503 209.997L236.492 183.994L154.247 101.748L72.002 19.503L45.754 45.751L19.507 71.998L33.725 86.217L47.944 100.435L58.327 90.218C67.122 81.562 69.198 80 71.903 80C75.998 80 80 84.098 80 88.291C80 90.75 78.16 93.16 69.783 101.672L59.567 112.054L69.756 122.244L79.946 132.433L90.328 122.217C99.122 113.562 101.198 112 103.903 112C107.998 112 112 116.098 112 120.291C112 122.75 110.16 125.16 101.783 133.672L91.567 144.054L101.756 154.244L111.946 164.433L122.328 154.217C131.122 145.562 133.198 144 135.903 144C139.998 144 144 148.098 144 152.291C144 154.75 142.16 157.16 133.783 165.672L123.567 176.054L133.756 186.244L143.946 196.433L154.328 186.217C163.122 177.562 165.198 176 167.903 176C171.998 176 176 180.098 176 184.291C176 186.75 174.16 189.16 165.787 197.669L155.574 208.047L169.524 222.024C177.196 229.711 183.707 236 183.994 236C184.28 236 196.209 224.299 210.503 209.997M202.455 101.545C200.89 99.981 200 97.951 200 95.95C200 93.275 201.848 90.926 212.431 80.148L224.862 67.488L230.871 43.517C234.176 30.333 236.784 19.45 236.667 19.333C236.55 19.216 225.664 21.821 212.477 25.123L188.5 31.125L175.914 43.562C165.067 54.281 162.885 56 160.119 56C155.831 56 152 52.175 152 47.894C152 45.11 153.839 42.871 166.25 30.547L180.5 16.397L214.258 8.081C251.02 -0.976 252.024 -1.06 255.076 4.643C256.284 6.898 255.564 10.63 248.007 41.327L239.593 75.5L225.508 89.75C213.12 102.284 211.032 104 208.166 104C206.041 104 204.056 103.147 202.455 101.545" />
    <glyph glyph-name="bb-search"
      unicode="&#xEA17;"
      horiz-adv-x="256" d="M203.2 75.2C217.6 94.4 225.6 116.8 225.6 142.4C225.6 204.8 176 256 113.6 256S0 204.8 0 142.4C0 80 51.2 28.8 113.6 28.8C139.2 28.8 163.2 36.8 180.8 51.2L228.8 3.2C232 0 236.8 -1.6 240 -1.6S248 0 251.2 3.2C257.6 9.6000000000001 257.6 19.2 251.2 25.6000000000001L203.2 75.2zM113.6 62.4C68.8 62.4 32 97.6 32 142.4S68.8 224 113.6 224S195.2 187.2 195.2 142.4S158.4 62.4 113.6 62.4z" />
    <glyph glyph-name="bb-video"
      unicode="&#xEA18;"
      horiz-adv-x="256" d="M11 141.5L11 59L131 59L251 59L251 141.5L251 224L131 224L11 224L11 141.5M245 141.5L245 64L130.5 64L16 64L16 141.5L16 219L130.5 219L245 219L245 141.5M107 141.509C107 121.429 107.231 105 107.514 105C108.358 105 162.218 141.12 161.844 141.435C161.655 141.595 149.238 149.892 134.25 159.872L107 178.018L107 141.509M132.5 154.69C142.4 148.122 150.888 142.395 151.362 141.962C152.074 141.313 114.166 115 112.519 115C112.233 115 112 126.952 112 141.559C112 162.536 112.263 167.962 113.25 167.375C113.938 166.966 122.6 161.258 132.5 154.69M64 29.5L64 27L130.5 27L197 27L197 29.5L197 32L130.5 32L64 32L64 29.5" />
    <glyph glyph-name="bb-user-24"
      unicode="&#xEA19;"
      horiz-adv-x="256" d="M94.848 242.628C76.673 237.248 61.534 222.104 55.734 203.5C52.826 194.174 52.634 169.145 55.392 159.058C59.279 144.847 66.631 132.594 77.907 121.537L83.988 115.574L71.889 113.361C57.91 110.805 36.577 104.845 30.734 101.864C24.598 98.734 17.674 91.691 14.426 85.278L11.5 79.5L11.194 50.25L10.889 21L55.944 21L101 21L101 26.5L101 32L60.915 32L20.831 32L21.187 53.75C21.522 74.166 21.688 75.793 23.891 80.27C27.472 87.545 33.474 92.221 43.209 95.319C63.79 101.87 79.132 104.662 104.5 106.473C129.349 108.247 136.077 110.941 148.557 124.109C158.911 135.034 164.885 145.445 168.608 159.058C171.137 168.307 171.145 194.081 168.621 202.5C162.821 221.847 146.868 237.736 128.02 242.936C117.749 245.77 105.066 245.652 94.848 242.628M122.28 233.529C131.357 231.605 138.254 227.75 145.575 220.509C152.377 213.782 157.403 204.645 158.995 196.114C160.448 188.329 160.198 171.62 158.509 163.5C156.121 152.029 149.82 140.797 140.516 131.428C129.062 119.894 119.736 116.2 106.716 118.04C97.89 119.288 92.347 122.482 83.39 131.482C69.598 145.34 64.052 159.67 64.017 181.54C63.989 199.683 67.725 209.744 78.491 220.509C85.569 227.587 92.626 231.61 101.251 233.484C109.44 235.262 114.051 235.272 122.28 233.529M173.245 73.745L139 39.489L139 19.745L139 0L158.755 0L178.511 0L212.998 34.498L247.485 68.996L228.002 88.498C217.287 99.224 208.287 108 208.004 108C207.721 108 192.079 92.585 173.245 73.745M220.505 80.995L232.478 68.991L203.495 39.995L174.513 11L161.756 11L149 11L149 22.744L149 34.487L178.244 63.744C194.328 79.835 207.722 93 208.009 93C208.296 93 213.919 87.598 220.505 80.995" />
    <glyph glyph-name="bb-small-add"
      unicode="&#xEA1A;"
      horiz-adv-x="256" d="M130.455 189.545L128 187.091L128 157.545L128 128L98.455 128L68.909 128L66.455 125.545C63.266 122.357 63.265 118.085 66.452 114.646L68.905 112L98.452 112L128 112L128 82.646L128 53.292L130.452 50.646C133.744 47.094 138.256 47.094 141.548 50.646L144 53.292L144 82.646L144 112L173.548 112L203.095 112L205.548 114.646C208.735 118.085 208.734 122.357 205.545 125.545L203.091 128L173.545 128L144 128L144 157.545L144 187.091L141.545 189.545C139.998 191.093 137.948 192 136 192C134.052 192 132.002 191.093 130.455 189.545" />
    <glyph glyph-name="small-delete"
      unicode="&#xEA1B;"
      horiz-adv-x="256" d="M66.455 125.545C63.266 122.357 63.265 118.085 66.452 114.646L68.905 112L136 112L203.095 112L205.548 114.646C208.735 118.085 208.734 122.357 205.545 125.545L203.091 128L136 128L68.909 128L66.455 125.545" />
    <glyph glyph-name="bb-plus-24"
      unicode="&#xEA1C;"
      horiz-adv-x="256" d="M128 154.5L128 128L101.5 128L75 128L75 122.5L75 117L101.5 117L128 117L128 90.5L128 64L133.5 64L139 64L139 90.5L139 117L165.5 117L192 117L192 122.5L192 128L165.5 128L139 128L139 154.5L139 181L133.5 181L128 181L128 154.5" />
    <glyph glyph-name="bb-minus-24"
      unicode="&#xEA1D;"
      horiz-adv-x="256" d="M75 122.5L75 117L133.5 117L192 117L192 122.5L192 128L133.5 128L75 128L75 122.5" />
    <glyph glyph-name="bb-coupon"
      unicode="&#xEA1E;"
      horiz-adv-x="256" d="M202.6666666666667 213.3333333333334H234.6666666666667V202.6666666666667H202.6666666666667zM202.6666666666667 64H234.6666666666667V53.3333333333333H202.6666666666667zM138.6666666666667 64H170.6666666666667V53.3333333333333H138.6666666666667zM288 149.3333333333334H298.6666666666667V117.3333333333334H288zM298.6666666666667 181.3333333333334H288V202.6666666666667H266.6666666666667V213.3333333333334H298.6666666666667zM298.6666666666667 53.3333333333333H266.6666666666667V64H288V85.3333333333333H298.6666666666667zM106.6666666666667 53.3333333333333H74.6666666666667V85.3333333333333H85.3333333333333V64H106.6666666666667zM80 128C65.0666666666667 128 53.3333333333333 139.7333333333334 53.3333333333333 154.6666666666667S65.0666666666667 181.3333333333334 80 181.3333333333334S106.6666666666667 169.6 106.6666666666667 154.6666666666667S94.9333333333333 128 80 128zM80 170.6666666666667C71.4666666666667 170.6666666666667 64 163.2 64 154.6666666666667S71.4666666666667 138.6666666666667 80 138.6666666666667S96 146.1333333333333 96 154.6666666666667S88.5333333333333 170.6666666666667 80 170.6666666666667zM80 234.6666666666667C65.0666666666667 234.6666666666667 53.3333333333333 246.4 53.3333333333333 261.3333333333333S65.0666666666667 288 80 288S106.6666666666667 276.2666666666667 106.6666666666667 261.3333333333333S94.9333333333333 234.6666666666667 80 234.6666666666667zM80 277.3333333333333C71.4666666666667 277.3333333333333 64 269.8666666666667 64 261.3333333333333S71.4666666666667 245.3333333333334 80 245.3333333333334S96 252.8 96 261.3333333333333S88.5333333333333 277.3333333333333 80 277.3333333333333zM95.552 255.7653333333334L225.8346666666667 145.5253333333334L218.944 137.376L88.6613333333333 247.6266666666667zM219.8826666666667 279.4346666666667L226.7733333333334 271.296L96.4693333333333 161.0773333333334L89.5786666666667 169.2266666666667z" />
    <glyph glyph-name="bb-edit"
      unicode="&#xEA1F;"
      horiz-adv-x="256" d="M94.455 185.75L24.394 115.5L16.085 81.765C10.711 59.948 8.001 47.131 8.414 45.486C8.806 43.926 10.359 42.319 12.431 41.332C15.738 39.754 16.52 39.896 49.655 48.055L83.5 56.389L153.75 126.466C219.69 192.244 224 196.756 224 200.001C224 203.189 221.958 205.499 197.729 229.729C173.459 253.999 171.194 256 167.987 256C164.723 256 160.328 251.801 94.455 185.75M186.502 217.998L204.483 199.996L194.24 189.753L183.997 179.51L165.76 197.747L147.522 215.985L157.492 225.992C162.976 231.497 167.701 236 167.992 236C168.283 236 176.612 227.899 186.502 217.998M154.503 185.997L172.486 167.993L124.081 119.581L75.676 71.168L51.608 65.148C38.37 61.837 27.445 59.222 27.33 59.337C27.215 59.452 29.815 70.336 33.108 83.523L39.095 107.5L87.294 155.75C113.803 182.288 135.724 204 136.007 204C136.289 204 144.613 195.899 154.503 185.997M10.455 13.545C7.266 10.357 7.265 6.085 10.452 2.646L12.905 0L128 0L243.095 0L245.548 2.646C248.735 6.085 248.734 10.357 245.545 13.545L243.091 16L128 16L12.909 16L10.455 13.545" />
    <glyph glyph-name="bb-small-left"
      unicode="&#xEA20;"
      horiz-adv-x="256" d="M110.265 169.735C74.716 134.187 72 131.226 72 128.025C72 124.824 74.723 121.853 110.253 86.289C145.119 51.39 148.797 48 151.8 48C156.037 48 160 52.042 160 56.362C160 59.062 155.868 63.571 125.776 93.71L91.552 127.987L125.776 162.305C156.613 193.226 160 196.943 160 199.857C160 204.212 156.19 208 151.81 208C148.826 208 145.067 204.538 110.265 169.735" />
    <glyph glyph-name="bb-small-right"
      unicode="&#xEA21;"
      horiz-adv-x="256" d="M98.455 205.545C96.86 203.951 96 201.957 96 199.857C96 196.943 99.387 193.226 130.224 162.305L164.448 127.987L130.224 93.71C100.132 63.571 96 59.062 96 56.362C96 52.042 99.963 48 104.2 48C107.203 48 110.881 51.39 145.747 86.289C181.277 121.853 184 124.824 184 128.025C184 131.226 181.284 134.187 145.735 169.735C110.933 204.538 107.174 208 104.19 208C102.04 208 100.063 207.154 98.455 205.545" />
    <glyph glyph-name="bb-small-up"
      unicode="&#xEA22;"
      horiz-adv-x="256" d="M86.265 145.735C52.426 111.897 48 107.114 48 104.382C48 100.057 51.954 96 56.169 96C59.123 96 62.688 99.25 93.716 130.231L128 164.461L162.284 130.231C193.312 99.25 196.877 96 199.831 96C204.046 96 208 100.057 208 104.382C208 107.114 203.574 111.897 169.735 145.735C134.082 181.389 131.234 184 128 184C124.766 184 121.918 181.389 86.265 145.735" />
    <glyph glyph-name="bb-small-down"
      unicode="&#xEA23;"
      horiz-adv-x="256" d="M50.455 157.545C48.854 155.944 48 153.959 48 151.835C48 148.884 51.587 144.988 86.253 110.289C122.002 74.506 124.734 72 128 72C131.266 72 133.998 74.506 169.747 110.289C204.413 144.988 208 148.884 208 151.835C208 156.203 204.201 160 199.829 160C196.878 160 193.303 156.74 162.284 125.769L128 91.539L93.716 125.769C62.697 156.74 59.122 160 56.171 160C54.041 160 52.057 159.148 50.455 157.545" />
    <glyph glyph-name="bb-tail-left-24"
      unicode="&#xEA24;"
      horiz-adv-x="256" d="M60.227 163.727L19 122.491L59.994 81.506L100.988 40.521L104.733 44.266L108.478 48.011L73.994 82.506L39.511 117L139.755 117L240 117L240 122.5L240 128L139.755 128L39.511 128L74.276 162.776L109.042 197.553L105.248 201.258L101.454 204.963L60.227 163.727" />
    <glyph glyph-name="bb-tail-right-24"
      unicode="&#xEA25;"
      horiz-adv-x="256" d="M161.735 201.269L157.989 197.522L192.739 162.761L227.489 128L127.245 128L27 128L27 122.5L27 117L126.745 117L226.489 117L192.006 82.506L157.522 48.011L161.269 44.265L165.015 40.518L206.256 81.759L247.497 123L206.489 164.008L165.482 205.015L161.735 201.269" />
    <glyph glyph-name="bb-sidebar"
      unicode="&#xEA26;"
      horiz-adv-x="256" d="M16.358 239.057C11.052 237.773 6.113 234.048 3.241 229.163L0.5 224.5L0.5 128L0.5 31.5L3.277 26.777C5.077 23.714 7.714 21.077 10.777 19.277L15.5 16.5L128 16.5L240.5 16.5L245.223 19.277C248.286 21.077 250.923 23.714 252.723 26.777L255.5 31.5L255.5 128L255.5 224.5L252.723 229.223C250.923 232.286 248.286 234.923 245.223 236.723L240.5 239.5L130 239.658C69.225 239.745 18.086 239.475 16.358 239.057M128 128L128 32L74 32C21.333 32 19.951 32.049 18 34C16.029 35.971 16 37.333 16 128C16 218.667 16.029 220.029 18 222C19.951 223.951 21.333 224 74 224L128 224L128 128M238 222C239.971 220.029 240 218.667 240 128C240 37.333 239.971 35.971 238 34C236.058 32.058 234.667 32 190 32L144 32L144 128L144 224L190 224C234.667 224 236.058 223.942 238 222M170.455 181.545C167.266 178.357 167.265 174.085 170.452 170.646L172.905 168L192 168L211.095 168L213.548 170.646C216.735 174.085 216.734 178.357 213.545 181.545C211.111 183.98 210.936 184 192 184C173.064 184 172.889 183.98 170.455 181.545M170.455 133.545C167.266 130.357 167.265 126.085 170.452 122.646L172.905 120L192 120L211.095 120L213.548 122.646C216.735 126.085 216.734 130.357 213.545 133.545C211.111 135.98 210.936 136 192 136C173.064 136 172.889 135.98 170.455 133.545M170.455 85.545C167.266 82.357 167.265 78.085 170.452 74.646L172.905 72L192 72L211.095 72L213.548 74.646C216.735 78.085 216.734 82.357 213.545 85.545C211.111 87.98 210.936 88 192 88C173.064 88 172.889 87.98 170.455 85.545" />
    <glyph glyph-name="bb-document"
      unicode="&#xEA27;"
      horiz-adv-x="256" d="M18.455 253.545L16 251.091L16 128.191L16 5.292L18.452 2.646L20.905 0L128 0L235.095 0L237.548 2.646L240 5.292L240 88.383L240 171.474L197.737 213.737L155.474 256L88.191 256L20.909 256L18.455 253.545M144 202.646L144 165.292L146.452 162.646L148.905 160L186.452 160L224 160L224 88L224 16L128 16L32 16L32 128L32 240L88 240L144 240L144 202.646M186.5 202L212.486 176L186.243 176L160 176L160 202C160 216.3 160.116 228 160.257 228C160.399 228 172.208 216.3 186.5 202M66.455 173.545C63.266 170.357 63.265 166.085 66.452 162.646L68.905 160L88 160L107.095 160L109.548 162.646C112.735 166.085 112.734 170.357 109.545 173.545C107.111 175.98 106.936 176 88 176C69.064 176 68.889 175.98 66.455 173.545M66.455 125.545C63.266 122.357 63.265 118.085 66.452 114.646L68.905 112L128 112L187.095 112L189.548 114.646C192.735 118.085 192.734 122.357 189.545 125.545L187.091 128L128 128L68.909 128L66.455 125.545M66.455 77.545C63.266 74.357 63.265 70.085 66.452 66.646L68.905 64L128 64L187.095 64L189.548 66.646C192.735 70.085 192.734 74.357 189.545 77.545L187.091 80L128 80L68.909 80L66.455 77.545" />
    <glyph glyph-name="bb-comments-32"
      unicode="&#xEA28;"
      horiz-adv-x="256" d="M104.5 253.95C62.726 246.776 28.097 222.687 10.972 188.886C-15.455 136.726 8.176 74.739 65.191 46.663C82.801 37.992 101.486 33.385 123.177 32.366C131.452 31.978 139.255 32.173 143.77 32.883L151.04 34.024L182.506 17.012C199.813 7.655 215.042 0 216.35 0C217.657 0 219.914 1.186 221.364 2.636L224 5.273L224 37.746L224 70.22L229.068 75.765C249.789 98.437 259.632 130.845 254.557 159.684C251.784 175.442 246.155 189.163 237.076 202.296C231.128 210.9 217.261 224.688 207.922 231.284C179.585 251.298 139.816 260.014 104.5 253.95M146.746 238.441C192.034 231.716 227.387 202.55 237.587 163.5C240.339 152.962 240.155 133.019 237.21 122.711C232.796 107.262 226.161 95.767 214.207 82.859L208.5 76.696L208.205 49.348C208.042 34.307 207.65 22 207.333 22C207.017 22 194.999 28.367 180.629 36.148L154.5 50.296L144.5 49.142C113.254 45.538 83.801 52.227 59.019 68.558C39.669 81.308 24.608 101.573 18.807 122.663C15.771 133.7 15.784 154.107 18.834 165.337C22.791 179.904 32.913 196.804 44.183 207.657C69.491 232.03 109.351 243.993 146.746 238.441M66.455 173.545C63.266 170.357 63.265 166.085 66.452 162.646L68.905 160L128 160L187.095 160L189.548 162.646C192.735 166.085 192.734 170.357 189.545 173.545L187.091 176L128 176L68.909 176L66.455 173.545M66.455 125.545C63.266 122.357 63.265 118.085 66.452 114.646L68.905 112L128 112L187.095 112L189.548 114.646C192.735 118.085 192.734 122.357 189.545 125.545L187.091 128L128 128L68.909 128L66.455 125.545" />
    <glyph glyph-name="bb-close-24"
      unicode="&#xEA29;"
      horiz-adv-x="256" d="M86.738 169.244L83.033 165.449L104.016 144.484C115.557 132.952 125 123.068 125 122.518C125 121.968 115.668 112.178 104.263 100.763L83.526 80.008L87.27 76.264L91.014 72.52L112.251 93.757L133.489 114.994L154.74 93.76L175.992 72.525L179.733 76.267L183.475 80.008L162.237 101.263L141 122.517L162 143.5C173.55 155.04 182.988 164.711 182.973 164.991C182.958 165.271 181.301 167.27 179.291 169.434L175.635 173.369L155.068 152.178C143.755 140.523 134.054 130.99 133.509 130.994C132.963 130.997 123.051 140.459 111.48 152.019L90.444 173.039L86.738 169.244" />
    <glyph glyph-name="bb-close-16"
      unicode="&#xEA2A;"
      horiz-adv-x="256" d="M66.455 189.545C64.866 187.957 64 185.956 64 183.874C64 181.004 66.82 177.825 90.216 154.32L116.433 127.983L90.216 101.698C67.364 78.786 64 75.02 64 72.353C64 68.064 67.969 64 72.159 64C75.08 64 78.104 66.684 101.707 90.225L128 116.45L154.293 90.225C177.896 66.684 180.92 64 183.841 64C188.031 64 192 68.064 192 72.353C192 75.02 188.636 78.786 165.784 101.698L139.567 127.983L165.784 154.32C189.18 177.825 192 181.004 192 183.874C192 188.197 188.18 192 183.839 192C180.921 192 177.889 189.309 154.293 165.775L128 139.55L101.707 165.775C78.111 189.309 75.079 192 72.161 192C70.042 192 68.054 191.145 66.455 189.545" />
    <glyph glyph-name="bb-check-32"
      unicode="&#xEA2B;"
      horiz-adv-x="256" d="M110.794 246.002C57.575 236.079 17.418 194.9 9.457 142.084C0.746 84.302 34.786 27.385 89.889 7.596C105.266 2.074 114.151 0.597 132 0.597C149.849 0.597 158.734 2.074 174.111 7.596C203.429 18.125 228.937 40.817 242.944 68.829C257.577 98.095 259.767 133.819 248.828 164.834C228.701 221.898 169.193 256.89 110.794 246.002M149.672 238.504C193.006 231.476 229.406 200.332 242.39 159.172C255.709 116.95 244.341 71.844 212.685 41.308C197.063 26.239 181.246 17.351 160 11.702C149.387 8.88 147.228 8.645 132 8.645C116.751 8.645 114.616 8.878 103.845 11.729C64.417 22.166 33.489 51.162 21.61 88.828C8.766 129.551 19.009 173.608 48.355 203.868C75.142 231.49 113.039 244.446 149.672 238.504M147.754 129.257L108.01 89.513L92.011 105.489L76.011 121.466L73.269 118.723L70.526 115.981L89.264 97.243L108.002 78.505L150.711 121.214L193.421 163.923L191.036 166.462C189.724 167.858 188.392 169 188.074 169C187.757 169 169.612 151.115 147.754 129.257" />
    <glyph glyph-name="bb-cart-speed-32"
      unicode="&#xEA2C;"
      horiz-adv-x="256" d="M8 244L8 240L24 240L40 240L40 208L40 176L44 176L48 176L48 192L48 208L143.5 208C196.025 208 239 207.758 239 207.461C239 207.165 234.05 180.551 228 148.319C221.95 116.087 217 89.33 217 88.858C217 88.386 169.975 88 112.5 88L8 88L8 83.996L8 79.991L115.708 80.246L223.415 80.5L235.517 145C242.173 180.475 247.919 210.962 248.285 212.75L248.95 216L148.475 216L48 216L48 232L48 248L28 248L8 248L8 244M40 148L40 144L68 144L96 144L96 148L96 152L68 152L40 152L40 148M24 116L24 112L52 112L80 112L80 116L80 120L52 120L24 120L24 116M53.5 55.12C40.867 51.785 32 40.6 32 28C32 12.942 44.942 0 60 0C75.058 0 88 12.942 88 28C88 42.362 76.756 54.359 62.254 55.471C59.089 55.714 55.15 55.556 53.5 55.12M221.5 55.12C208.867 51.785 200 40.6 200 28C200 12.942 212.942 0 228 0C243.058 0 256 12.942 256 28C256 42.362 244.756 54.359 230.254 55.471C227.089 55.714 223.15 55.556 221.5 55.12M70.531 44.673C72.542 43.306 75.379 40.458 76.835 38.344C79.036 35.147 79.48 33.406 79.471 28C79.461 22.514 79.013 20.837 76.596 17.249C72.285 10.849 67.83 8.5 60 8.5C52.17 8.5 47.715 10.849 43.404 17.249C40.987 20.837 40.539 22.514 40.529 28C40.52 33.406 40.964 35.147 43.165 38.344C45.873 42.276 50.999 46.329 54.525 47.325C58.741 48.515 66.854 47.171 70.531 44.673M238.531 44.673C240.542 43.306 243.379 40.458 244.835 38.344C247.036 35.147 247.48 33.406 247.471 28C247.461 22.514 247.013 20.837 244.596 17.249C240.285 10.849 235.83 8.5 228 8.5C220.17 8.5 215.715 10.849 211.404 17.249C208.987 20.837 208.539 22.514 208.529 28C208.52 33.406 208.964 35.147 211.165 38.344C213.873 42.276 218.999 46.329 222.525 47.325C226.741 48.515 234.854 47.171 238.531 44.673" />
    <glyph glyph-name="bb-alert-32"
      unicode="&#xEA2D;"
      horiz-adv-x="256" d="M110.794 246.002C57.575 236.079 17.418 194.9 9.457 142.084C0.746 84.302 34.786 27.385 89.889 7.596C105.266 2.074 114.151 0.597 132 0.597C149.849 0.597 158.734 2.074 174.111 7.596C203.429 18.125 228.937 40.817 242.944 68.829C257.577 98.095 259.767 133.819 248.828 164.834C228.701 221.898 169.193 256.89 110.794 246.002M149.672 238.504C193.006 231.476 229.406 200.332 242.39 159.172C255.709 116.95 244.341 71.844 212.685 41.308C197.063 26.239 181.246 17.351 160 11.702C149.387 8.88 147.228 8.645 132 8.645C116.751 8.645 114.616 8.878 103.845 11.729C64.417 22.166 33.489 51.162 21.61 88.828C8.766 129.551 19.009 173.608 48.355 203.868C75.142 231.49 113.039 244.446 149.672 238.504M128 148L128 96L132 96L136 96L136 148L136 200L132 200L128 200L128 148M127.5 71.097C123.014 69.127 120.5 65.085 120.5 59.843C120.5 55.35 120.877 54.501 124.235 51.423C127.196 48.71 128.806 48 132 48C135.194 48 136.804 48.71 139.765 51.423C143.135 54.512 143.5 55.341 143.5 59.904C143.5 64.224 143.049 65.413 140.407 68.055C137.105 71.357 131.239 72.739 127.5 71.097" />
    <glyph glyph-name="bb-box-32"
      unicode="&#xEA2F;"
      horiz-adv-x="256" d="M44.25 217.243L11 189.575L11 94.787L11 0L133.5 0L256 0L255.945 94.75L255.89 189.5L222.425 217.25L188.96 245L133.23 244.955L77.5 244.911L44.25 217.243M113.091 230.25C112.058 227.637 108.193 217.963 104.503 208.75L97.794 192L64.32 192L30.845 192L56.488 213.5L82.132 235L98.551 235L114.971 235L113.091 230.25M148.198 215.024C152.494 204.312 156.262 194.749 156.572 193.774C157.1 192.109 155.659 192 133.155 192L109.175 192L117.246 212.25C121.686 223.388 125.767 233.081 126.316 233.792C126.997 234.673 129.393 234.991 133.851 234.792L140.387 234.5L148.198 215.024M208 215.403C220.925 204.642 232.394 194.969 233.486 193.905C235.45 191.994 235.102 191.975 202.138 192.236L168.804 192.5L160.402 213.477C155.781 225.014 152 234.576 152 234.727C152 234.877 159.313 234.993 168.25 234.983L184.5 234.967L208 215.403M96 144L96 107L133.5 107L171 107L171 144L171 181L208 181L245 181L245 96L245 11L133 11L21 11L21 96L21 181L58.5 181L96 181L96 144M160 149L160 117L133.5 117L107 117L107 149L107 181L133.5 181L160 181L160 149" />
    <glyph glyph-name="bb-download-32"
      unicode="&#xEA30;"
      horiz-adv-x="256" d="M128 193.26L128 146.52L109.503 164.997L91.007 183.473L87.263 179.73L83.519 175.986L108.515 150.99L133.51 125.995L158.493 150.993L183.476 175.991L179.735 179.732L175.993 183.473L157.497 164.997L139 146.52L139 193.26L139 240L133.5 240L128 240L128 193.26M27.743 142.739L11 92.478L11 46.239L11 0L133.5 0L256 0L256 45.75L256 91.5L239.375 141.5C230.231 169 222.398 191.886 221.967 192.358C221.215 193.182 214.293 191.476 212.759 190.089C212.352 189.72 218.99 168.518 227.509 142.972C236.029 117.426 243 96.406 243 96.262C243 96.118 193.725 96 133.5 96C73.275 96 24 96.343 24 96.762C24 97.181 30.925 118.289 39.389 143.668L54.779 189.813L50.606 191.406C48.311 192.283 45.995 193 45.459 193C44.923 193 36.951 170.383 27.743 142.739M245 48L245 11L133 11L21 11L21 48L21 85L133 85L245 85L245 48M160 48L160 43L186.5 43L213 43L213 48L213 53L186.5 53L160 53L160 48" />
    <glyph glyph-name="bb-home-32"
      unicode="&#xEA31;"
      horiz-adv-x="256" d="M73 187.003C40.275 160.146 13.5 137.779 13.5 137.3C13.5 136.822 14.85 134.819 16.5 132.849L19.5 129.269L75.5 175.212C106.3 200.48 132.018 221.376 132.651 221.646C133.285 221.917 158.71 201.784 189.151 176.907C219.593 152.03 245.121 131.195 245.881 130.607C246.945 129.783 248.037 130.435 250.646 133.454C252.508 135.607 253.686 137.693 253.265 138.088C250.002 141.156 133.478 235.982 133.051 235.918C132.748 235.873 105.725 213.861 73 187.003M117 123L117 107L133 107L149 107L149 123L149 139L133 139L117 139L117 123M43 58.5L43 0L133.5 0L224 0L224 58.5L224 117L218.5 117L213 117L213 64L213 11L186.5 11L160 11L160 43L160 75L133.5 75L107 75L107 43L107 11L80 11L53 11L53 64L53 117L48 117L43 117L43 58.5M149 37.5L149 11L133 11L117 11L117 37.5L117 64L133 64L149 64L149 37.5" />
    <glyph glyph-name="bb-edit-32"
      unicode="&#xEA32;"
      horiz-adv-x="256" d="M94.848 242.628C76.673 237.248 61.534 222.104 55.734 203.5C52.826 194.174 52.634 169.145 55.392 159.058C59.279 144.847 66.631 132.594 77.907 121.537L83.988 115.574L71.889 113.361C57.91 110.805 36.577 104.845 30.734 101.864C24.598 98.734 17.674 91.691 14.426 85.278L11.5 79.5L11.194 50.25L10.889 21L55.944 21L101 21L101 26.5L101 32L60.915 32L20.831 32L21.187 53.75C21.522 74.166 21.688 75.793 23.891 80.27C27.472 87.545 33.474 92.221 43.209 95.319C63.79 101.87 79.132 104.662 104.5 106.473C129.349 108.247 136.077 110.941 148.557 124.109C158.911 135.034 164.885 145.445 168.608 159.058C171.137 168.307 171.145 194.081 168.621 202.5C162.821 221.847 146.868 237.736 128.02 242.936C117.749 245.77 105.066 245.652 94.848 242.628M122.28 233.529C131.357 231.605 138.254 227.75 145.575 220.509C152.377 213.782 157.403 204.645 158.995 196.114C160.448 188.329 160.198 171.62 158.509 163.5C156.121 152.029 149.82 140.797 140.516 131.428C129.062 119.894 119.736 116.2 106.716 118.04C97.89 119.288 92.347 122.482 83.39 131.482C69.598 145.34 64.052 159.67 64.017 181.54C63.989 199.683 67.725 209.744 78.491 220.509C85.569 227.587 92.626 231.61 101.251 233.484C109.44 235.262 114.051 235.272 122.28 233.529M173.245 73.745L139 39.489L139 19.745L139 0L158.755 0L178.511 0L212.998 34.498L247.485 68.996L228.002 88.498C217.287 99.224 208.287 108 208.004 108C207.721 108 192.079 92.585 173.245 73.745M220.505 80.995L232.478 68.991L203.495 39.995L174.513 11L161.756 11L149 11L149 22.744L149 34.487L178.244 63.744C194.328 79.835 207.722 93 208.009 93C208.296 93 213.919 87.598 220.505 80.995" />
    <glyph glyph-name="bb-power-32"
      unicode="&#xEA33;"
      horiz-adv-x="256" d="M128 202.5L128 160L133.5 160L139 160L139 202.5L139 245L133.5 245L128 245L128 202.5M72.118 205.686C48.915 189.864 31.433 165.654 24.975 140.4C19.568 119.261 20.732 94.162 28.043 74.253C36.391 51.52 52.051 31.961 72.906 18.223C83.599 11.178 93.364 6.87 106.926 3.215C115.474 0.911 118.322 0.637 133.5 0.658C148.664 0.679 151.58 0.967 160.5 3.332C174.244 6.974 192.116 16.068 203.292 25.105C222.84 40.913 235.134 60.185 242.198 86.097C244.202 93.448 244.483 96.754 244.44 112.5C244.395 128.794 244.136 131.448 241.705 140.5C235.973 161.838 221.941 184.374 206.178 197.56C199.602 203.061 185.141 212.586 184.547 211.808C183.29 210.159 179.743 202.951 180.072 202.715C180.307 202.546 184.26 199.978 188.856 197.008C198.317 190.895 210.316 179.338 216.24 170.634C235.549 142.264 239.81 106.303 227.557 75.127C215.851 45.341 188.919 21.778 157.44 13.782C145.025 10.628 120.374 10.629 108.825 13.784C90.054 18.911 75.503 27.337 61.951 40.927C38.194 64.75 28.024 96.383 33.611 129.074C38.346 156.783 53.818 180.365 78.248 197.111L86.996 203.107L85.574 205.804C81.945 212.687 82.391 212.691 72.118 205.686" />
    <glyph glyph-name="bb-dashboard-32"
      unicode="&#xEA34;"
      horiz-adv-x="256" d="M119.5 223.343C118.4 223.109 113.915 222.228 109.534 221.385C69.484 213.676 35.035 185.131 19.695 146.944C13.117 130.568 11.554 121.78 11.525 101C11.5 82.405 11.918 79.089 16.002 65.5C20.18 51.601 26.076 40.084 35.328 27.75L40.392 21L133.197 21L226.002 21L230.636 26.967C250.984 53.169 259.359 85.293 254.5 118.5C250.102 148.561 236.879 173.007 213.951 193.465C192.308 212.776 161.541 224.195 132 223.88C126.225 223.818 120.6 223.577 119.5 223.343M128 200L128 187L133.5 187L139 187L139 200C139 215.13 137.674 214.007 152.5 211.428C163.086 209.587 173.654 206.201 182.293 201.883C189.905 198.078 203.818 188.964 206.446 186.06L208.382 183.921L199.192 174.693L190.002 165.465L193.733 161.733L197.465 158.002L206.693 167.192C217.428 177.882 216.298 177.994 225.024 165.371C235.285 150.528 242.69 130.918 244.515 113.75L245.233 107L232.116 107L219 107L219 101.5L219 96L232.129 96L245.258 96L244.551 88.819C242.879 71.856 236.502 54.285 226.741 39.75L221.537 32L133.332 32L45.127 32L39.517 40.431C29.715 55.163 23.578 72.221 22.315 88.25L21.704 96L34.852 96L48 96L48 101.5L48 107L35 107L22 107L22.013 111.25C22.02 113.588 22.867 119.55 23.894 124.5C31.899 163.086 61.58 195.94 99.308 207.978C105.397 209.921 120.165 212.853 124.25 212.93L128 213L128 200M79.979 154.478L76.565 150.956L93.817 133.683L111.069 116.41L108.914 111.538C107.142 107.533 106.842 105.359 107.23 99.323C107.63 93.088 108.199 91.249 111.002 87.142C112.818 84.481 116.468 80.826 119.114 79.021C125.344 74.77 135.335 73.711 142.695 76.521C155.94 81.58 163.149 96.822 158.512 109.965C153.651 123.743 138.502 130.954 124.5 126.155L118.5 124.098L101.49 141.049C92.134 150.372 84.235 158 83.936 158C83.637 158 81.856 156.415 79.979 154.478M140.619 115.377C145.649 112.99 148.33 108.621 148.788 102.065C149.281 95.012 146.571 90.529 139.777 87.157C133.415 84 128.167 84.837 122.785 89.865C109.402 102.371 124.005 123.26 140.619 115.377" />
    <glyph glyph-name="bb-alert-48"
      unicode="&#xEA35;"
      horiz-adv-x="256" d="M110.5 243.547C73.486 236.818 42.466 214.429 25.145 181.943C9.82 153.199 6.768 119.997 16.592 88.9C21.049 74.788 26.638 64.314 36.571 51.457C54.542 28.196 80.308 12.805 111.143 6.912C120.736 5.078 142.896 5.374 153 7.47C176.493 12.343 196.206 22.549 212.902 38.482C239.871 64.219 253.312 99.626 249.92 136C244.817 190.72 204.688 234.022 150.29 243.509C140.052 245.294 120.215 245.313 110.5 243.547M155.885 237.066C197.948 227.517 230.64 195.582 241.641 153.294C245.068 140.122 245.931 119.542 243.615 106.258C241.493 94.095 238.998 86.807 232.395 73.5C212.463 33.327 171.318 9.356 125.597 11.279C50.171 14.451 -1.133 87.895 21.598 160.156C30.801 189.412 52.314 214.283 80.5 228.251C91.789 233.845 98.07 235.712 118 239.398C124.067 240.521 146.844 239.118 155.885 237.066M128 146.5L128 112L130.5 112L133 112L133 146.5L133 181L130.5 181L128 181L128 146.5M125.174 82.686C121.207 78.463 122.697 71.999 128.069 70.126C134.418 67.912 140.445 74.097 137.908 80.222C135.74 85.457 129.002 86.76 125.174 82.686" />
    <glyph glyph-name="bb-check-12"
      unicode="&#xEA36;"
      horiz-adv-x="256" d="M85.3333333333333 21.3333333333333A21.333333333333332 21.333333333333332 0 0 0 70.2506666666667 27.584L6.2506666666667 91.584A21.333333333333332 21.333333333333332 0 0 0 36.416 121.7493333333334L83.3493333333333 74.816L217.8133333333333 247.7653333333334A21.333333333333332 21.333333333333332 0 0 0 251.52 221.568L102.1866666666667 29.568A21.333333333333332 21.333333333333332 0 0 0 86.656 21.3333333333333z" />
    <glyph glyph-name="bb-button-play"
      unicode="&#xEA38;"
      horiz-adv-x="256" d="M53 122.559C53 58.452 53.134 6 53.297 6C53.46 6 92.891 32.309 140.921 64.464L228.249 122.929L141.874 180.295C94.369 211.846 54.938 237.988 54.25 238.389C53.253 238.971 53 215.528 53 122.559M139.251 169.158C177.614 143.589 208.889 122.579 208.751 122.468C208.613 122.358 175.988 100.606 136.25 74.13L64 25.993L64 122.612L64 219.23L66.75 217.439C68.263 216.453 100.888 194.727 139.251 169.158" />
    <glyph glyph-name="bb-search-24"
      unicode="&#xEA39;"
      horiz-adv-x="256" d="M101.404 234.007C70.441 230.622 41.651 209.022 28.728 179.48C19.195 157.689 19.195 130.311 28.728 108.52C39.951 82.866 62.811 63.363 89.936 56.3C109.835 51.119 133.293 53.588 151.564 62.786C155.929 64.983 162.376 68.902 165.892 71.493L172.284 76.205L206.136 42.364L239.989 8.522L243.733 12.267L247.478 16.011L213.531 49.969L179.583 83.928L181.685 86.214C185.019 89.84 192.382 101.941 195.29 108.573C202.392 124.768 204.311 147.014 200.108 164.427C189.251 209.409 147.246 239.02 101.404 234.007M134.5 220.536C153.482 214.944 168.995 203.207 179.503 186.488C199.829 154.149 194.761 113.145 167.181 86.796C149.906 70.291 130.025 62.879 107 64.359C91.701 65.343 80.765 69.014 68.15 77.4C44.133 93.367 30.729 120.026 32.316 148.672C33.528 170.563 43.741 190.62 61.383 205.757C80.477 222.14 109.288 227.963 134.5 220.536" />
    <glyph glyph-name="bb-pin-32"
      unicode="&#xEA3A;"
      horiz-adv-x="256" d="M122.4 4.8V88.8H53.6C51.2 88.8 49.6 90.4 49.6 92.8V115.2C49.6 128.8 60 140.8 73.6 142.4H76.8L84.8 208.8H73.6C72 209.6 69.6 211.2 69.6 213.6V230.4C69.6 242.4 79.2 252 91.2 252H160C172 252 181.6 242.4 181.6 230.4V213.6C181.6 211.2 180 209.6 177.6 209.6H166.4L174.4 143.2H177.6C191.2 141.6 201.6 129.6 201.6 116V93.6C201.6 91.2 200 89.6 197.6 89.6H129.6V5.6H122.4zM77.6 135.2C66.4 135.2 57.6 126.4 57.6 115.2V96.8H193.6V115.2C193.6 126.4 184.8 135.2 173.6 135.2H77.6zM85.6 143.2H166.4L158.4 209.6H92.8L85.6 143.2zM162.4 217.6H174.4V230.4C174.4 238.4 168 244 160.8 244H92C84 244 78.4 237.6 78.4 230.4V217.6H162.4z" />
    <glyph glyph-name="bb-cart-speed-16"
      unicode="&#xEA3B;"
      horiz-adv-x="256" d="M2.455 253.545C-0.734 250.357 -0.735 246.085 2.452 242.646L4.905 240L26.452 240L48 240L48 226.646C48 213.857 48.104 213.18 50.452 210.646L52.905 208L145.329 208L237.753 208L223.752 152L209.75 96L107.33 96L4.909 96L2.455 93.545C-0.734 90.357 -0.735 86.085 2.452 82.646L4.905 80L111.841 80C212.411 80 218.908 80.105 220.951 81.759C222.752 83.217 225.933 94.729 239.533 149.009C248.558 185.029 255.955 215.533 255.971 216.795C255.987 218.058 254.895 220.195 253.545 221.545L251.091 224L157.545 224L64 224L64 237.545C64 250.594 63.91 251.181 61.545 253.545L59.091 256L32 256L4.909 256L2.455 253.545M34.455 157.545C31.266 154.357 31.265 150.085 34.452 146.646L36.905 144L80 144L123.095 144L125.548 146.646C128.735 150.085 128.734 154.357 125.545 157.545L123.091 160L80 160L36.909 160L34.455 157.545M40.734 62.97C31.404 60.627 23.095 53.89 18.812 45.193C16.946 41.404 16.5 38.862 16.5 32C16.5 21.879 18.692 16.466 25.579 9.579C36.752 -1.594 53.733 -3.061 66.421 6.051C87.042 20.86 83.331 51.659 59.744 61.47C54.969 63.456 45.609 64.195 40.734 62.97M200.734 62.97C191.404 60.627 183.095 53.89 178.812 45.193C176.946 41.404 176.5 38.862 176.5 32C176.5 21.879 178.692 16.466 185.579 9.579C196.752 -1.594 213.733 -3.061 226.421 6.051C247.042 20.86 243.331 51.659 219.744 61.47C214.969 63.456 205.609 64.195 200.734 62.97M54.655 46.359C64.696 41.595 66.921 29.206 59.194 21.084C55.075 16.753 50.43 15.321 44.259 16.479C39.492 17.373 33.351 23.614 32.435 28.493C29.956 41.707 42.761 52.003 54.655 46.359M214.655 46.359C224.696 41.595 226.921 29.206 219.194 21.084C215.075 16.753 210.43 15.321 204.259 16.479C199.492 17.373 193.351 23.614 192.435 28.493C189.956 41.707 202.761 52.003 214.655 46.359" />
    <glyph glyph-name="bb-favorite-32"
      unicode="&#xEA3C;"
      horiz-adv-x="256" d="M64.347 230.905C49.705 228.459 33.265 218.522 23.3 206.096C2.303 179.911 3.154 142.639 25.335 116.979C28.89 112.865 54.344 87.002 81.9 59.504L132 9.508L181.098 58.504C238.609 115.895 243.725 121.465 249.007 132.447C256.134 147.267 257.903 167.099 253.427 181.998C243.009 216.675 208.405 237.401 172.421 230.516C159.339 228.013 143.598 219.19 135.651 209.905L132.123 205.784L126.812 211.194C110.58 227.725 87.987 234.855 64.347 230.905M90.5 222.496C104.863 219.48 121.175 208.348 128.712 196.416C130.246 193.989 131.725 192.004 132 192.004C132.275 192.004 133.754 193.989 135.288 196.416C139.786 203.536 150.999 213.398 159.168 217.418C176.445 225.92 195.205 226.088 212.87 217.898C224.101 212.691 235.915 201.121 241.358 190C250.587 171.141 249.859 148.963 239.433 131.403C236.737 126.862 222.573 112.068 183.926 73.426L132.039 21.546L83.329 70.023C56.538 96.685 32.652 120.75 30.248 123.5C14.899 141.059 11.83 167.897 22.643 190C27.913 200.771 39.831 212.594 50.551 217.685C63.396 223.785 76.719 225.389 90.5 222.496" />
    <glyph glyph-name="bb-credit-card-32"
      unicode="&#xEA3D;"
      horiz-adv-x="256" d="M18.907 213.673C16.483 212.394 13.15 209.43 11.5 207.087L8.5 202.827L8.5 124L8.5 45.172L11.5 40.913C13.15 38.57 16.483 35.606 18.907 34.327L23.315 32L132 32L240.685 32L245.093 34.327C247.517 35.606 250.85 38.57 252.5 40.913L255.5 45.172L255.5 124L255.5 202.827L252.5 207.087C250.85 209.43 247.517 212.394 245.093 213.673L240.685 216L132 216L23.315 216L18.907 213.673M244.231 204.234L247.5 200.967L247.832 188.484L248.163 176L132 176L15.837 176L16.168 188.422C16.479 200.06 16.658 201.015 19 203.532C20.375 205.01 22.4 206.594 23.5 207.053C24.6 207.512 73.979 207.8 133.231 207.694L240.962 207.5L244.231 204.234M248 152L248 136L132 136L16 136L16 152L16 168L132 168L248 168L248 152M247.783 87.422L247.5 46.845L243.765 43.422L240.029 40L132 40L23.971 40L20.235 43.422L16.5 46.845L16.217 87.422L15.935 128L132 128L248.065 128L247.783 87.422M40 84L40 80L72 80L104 80L104 84L104 88L72 88L40 88L40 84M200 84L200 80L212 80L224 80L224 84L224 88L212 88L200 88L200 84" />
    <glyph glyph-name="bb-email-32"
      unicode="&#xEA3E;"
      horiz-adv-x="256" d="M26.718 222.92C21.181 221.6 17.689 219.549 14.191 215.565C7.919 208.422 8 209.616 8 124C8 37.625 7.867 39.474 14.62 31.999C21.818 24.032 14.493 24.5 132 24.5C249.507 24.5 242.182 24.032 249.38 31.999C256.133 39.474 256 37.625 256 124C256 209.788 256.0950000000001 208.405 249.707 215.681C247.943 217.69 244.475 220.271 242 221.417C237.539 223.482 236.601 223.501 134 223.661C75.316 223.752 28.862 223.431 26.718 222.92M236.101 214.866C241.168 213.175 245.652 208.438 246.908 203.45C247.65 200.506 248 174.698 248 123.025C248 56.814 247.8 46.458 246.462 43.254C244.39 38.296 242.258 36.066 237.5 33.881C233.702 32.137 228.376 32.044 132 32.044C35.431 32.044 30.306 32.134 26.5 33.89C21.677 36.116 18.668 39.334 17.139 43.899C15.571 48.579 15.527 197.237 17.092 203.45C18.307 208.278 22.782 213.157 27.5 214.798C31.902 216.33 231.519 216.395 236.101 214.866M40.971 182.47L38.594 179.939L42.047 176.538C48.278 170.4 131.438 95 131.977 95C132.522 95 215.837 170.499 221.98 176.56L225.461 179.994L222.768 182.686C220.088 185.366 220.066 185.37 217.886 183.439C216.682 182.373 197.002 164.513 174.154 143.75C151.305 122.988 132.344 106 132.017 106C131.69 106 111.865 123.773 87.961 145.496C64.058 167.219 44.241 184.994 43.924 184.996C43.608 184.998 42.279 183.861 40.971 182.47M58.407 92.25C49.217 80.838 41.006 70.695 40.16 69.712C38.755 68.079 38.846 67.699 41.207 65.339C42.629 63.917 44.238 63.029 44.783 63.366C45.328 63.703 53.767 73.896 63.536 86.017L81.297 108.054L78.974 110.527C77.697 111.887 76.306 113 75.883 113C75.461 113 67.597 103.662 58.407 92.25M185.061 110.565L182.738 108.092L199.858 86.677C209.274 74.899 217.684 64.677 218.547 63.961C219.872 62.862 220.521 63.066 222.734 65.28L225.354 67.899L207.416 90.12C197.551 102.341 189.008 112.497 188.432 112.689C187.856 112.881 186.339 111.925 185.061 110.565" />
    <glyph glyph-name="bb-present-32"
      unicode="&#xEA3F;"
      horiz-adv-x="256" d="M76.139 238.919C67.544 236.276 59.922 228.784 57.471 220.568C54.706 211.301 55.796 204.208 61.207 196.25L64.096 192L36.048 192L8 192L8 168L8 144L56 144L104 144L104 80L104 16L79.657 16C56.104 16 55.172 16.075 50.907 18.327C48.483 19.606 45.15 22.57 43.5 24.912L40.5 29.17L40.211 74.585L39.923 120L35.961 120L32 120L32 75.866C32 45.958 32.364 30.517 33.13 27.962C34.879 22.123 40.875 15.05 47 11.599L52.5 8.5L132 8.5L211.5 8.5L217 11.599C223.455 15.236 229.378 22.471 230.923 28.608C231.61 31.338 232 48.639 232 76.443L232 120L228.039 120L224.077 120L223.789 74.585L223.5 29.17L220.5 24.912C218.85 22.57 215.517 19.606 213.093 18.327C208.828 16.075 207.896 16 184.343 16L160 16L160 80L160 144L208 144L256 144L256 168L256 192L227.952 192L199.904 192L202.841 196.269C212.529 210.35 207.69 229.189 192.377 237.009C188.187 239.149 186.232 239.487 178.5 239.406C171.155 239.329 168.489 238.85 164 236.805C152.736 231.671 142.023 220.556 135.5 207.234C133.85 203.865 132.275 201.108 132 201.108C131.725 201.108 130.15 203.865 128.5 207.234C121.984 220.541 111.162 231.777 100.13 236.69C93.988 239.425 81.545 240.581 76.139 238.919M93.517 230.545C104.448 227.255 115.019 216.587 122.486 201.312C124.419 197.358 126 193.646 126 193.062C126 192.343 118.456 192 102.657 192C80.151 192 79.157 192.083 74.907 194.327C72.483 195.606 69.152 198.568 67.504 200.907C64.885 204.626 64.507 206.021 64.504 211.991C64.5 217.968 64.874 219.352 67.5 223.083C73.187 231.165 82.542 233.848 93.517 230.545M191.153 228.454C193.459 226.829 196.432 223.475 197.76 221C202.746 211.703 198.758 199.429 189.093 194.327C184.843 192.083 183.849 192 161.343 192C144.125 192 138 192.308 138 193.175C138 195.576 145.179 208.715 149.985 215.112C158.562 226.528 169.107 232.214 180.729 231.689C185.742 231.463 187.778 230.831 191.153 228.454M104 168L104 152L60 152L16 152L16 168L16 184L60 184L104 184L104 168M152 168L152 152L132 152L112 152L112 168L112 184L132 184L152 184L152 168M248 168L248 152L204 152L160 152L160 168L160 184L204 184L248 184L248 168M152 80L152 16L132 16L112 16L112 80L112 144L132 144L152 144L152 80" />
    <glyph glyph-name="bb-dish-32"
      unicode="&#xEA40;"
      horiz-adv-x="256" d="M124.139 246.912C116.594 244.607 109.288 238.139 106.166 231C105.226 228.851 104.416 222.914 104.068 215.622L103.5 203.745L96.991 201.556C80.316 195.949 61.852 181.939 51.554 167.078L48.746 163.026L51.123 161.046C52.43 159.957 53.95 159.079 54.5 159.094C55.05 159.11 57.962 162.293 60.972 166.168C71.045 179.139 88.248 190.667 105.332 195.895C128.69 203.042 156.161 199.944 177.99 187.701C187.975 182.101 205.1 165.243 210.701 155.5C217.621 143.461 221.703 131.273 223.511 117.25L224.188 112L192.094 112L160 112L160 108L160 104L208 104L256 104L256 108L256 112L244.103 112L232.207 112L230.985 120.75C229.578 130.838 226.043 142.78 221.812 151.738C218.502 158.748 209.676 171.543 204.156 177.335C195.267 186.661 175.468 199.233 164.5 202.517L160.5 203.714L159.932 215.607C159.574 223.111 158.78 228.843 157.779 231.14C155.489 236.398 149.871 242.211 144.472 244.907C139.151 247.564 129.415 248.525 124.139 246.912M143.178 236.436C149.807 231.767 152 226.521 152 215.334L152 205.983L146.25 206.741C138.905 207.711 122.925 207.719 116.659 206.757L111.818 206.013L112.159 216.424C112.476 226.109 112.709 227.132 115.5 231.091C122.023 240.344 134.272 242.709 143.178 236.436M8 80L8 24L28 24L48 24L48 30.583C48 34.204 48.337 37.006 48.75 36.81C49.163 36.614 62.414 29.969 78.198 22.044C109.554 6.3 112.399 5.419 123.895 7.884C126.731 8.492 155.814 19.852 188.525 33.127C253.454 59.479 249.769 57.471 246.366 64.642C244.149 69.312 237.417 74.623 230.346 77.281C224.855 79.344 222.568 79.497 192.712 79.802L160.924 80.127L156.96 84.427C154.78 86.792 149.96 90.248 146.248 92.108L139.5 95.489L120.896 95.836L102.292 96.183L95.903 102.168C85.038 112.348 66.667 119.932 52.75 119.983L48 120L48 128L48 136L28 136L8 136L8 80M40 80L40 32L28 32L16 32L16 80L16 128L28 128L40 128L40 80M70.801 108.434C79.403 105.21 86.323 100.602 93.09 93.592L98.488 88L116.062 88C136.502 88 141.316 86.98 148.806 81.059C153.392 77.434 159 68.767 159 65.304C159 64.258 152.369 64 125.5 64L92 64L92 60L92 56L130 56L168 56L168 58.782C168 60.312 167.391 63.912 166.646 66.782L165.293 72L191.936 72C212.735 72 219.887 71.661 224.54 70.454C230.777 68.836 238.301 64.402 237.727 62.682C237.366 61.597 130.771 18.036 123.489 15.997C114.564 13.498 110.318 14.902 77.884 31.074L48 45.975L48 79.131L48 112.288L56.051 111.616C60.66 111.232 66.965 109.872 70.801 108.434" />
    <glyph glyph-name="bb-compare-16"
      unicode="&#xEA41;"
      horiz-adv-x="256" d="M210.455 253.545L208 251.091L208 229.017L208 206.942L200.25 213.256C186.473 224.481 175.699 230.288 160.003 234.951C128.022 244.452 93.419 239.434 66.232 221.354C37.172 202.027 18.607 169.709 16.338 134.5C15.779 125.831 15.853 125.399 18.331 122.75C21.685 119.166 26.22 119.056 29.396 122.482C31.323 124.561 31.799 126.468 32.328 134.232C33.891 157.136 43.309 178.231 59.391 194.845C90.991 227.491 141.475 233.194 180.041 208.474C183.752 206.095 189.649 201.431 193.144 198.109L199.5 192.07L174.205 192.035L148.909 192L146.455 189.545C143.266 186.357 143.265 182.085 146.452 178.646L148.905 176L183.998 176L219.091 176L221.545 178.455L224 180.909L224 216L224 251.091L221.545 253.545C218.298 256.793 213.702 256.793 210.455 253.545M226.617 133.708C224.676 131.767 224.222 129.966 223.658 121.958C219.786 66.98 171.456 26.621 117.064 32.944C95.737 35.423 77.746 43.734 62.659 58.076L56.5 63.93L81.798 63.965L107.095 64L109.548 66.646C112.735 70.085 112.734 74.357 109.545 77.545L107.091 80L72 80L36.909 80L34.455 77.545L32 75.091L32 40.191L32 5.292L34.452 2.646C37.744 -0.906 42.256 -0.906 45.548 2.646C47.995 5.287 48 5.333 48 27.175L48 49.058L55.75 42.744C64.951 35.247 69.32 32.372 78.581 27.718C102.08 15.909 132.378 12.987 158.003 20.06C187.563 28.218 214.164 50.345 228.259 78.5C234.83 91.625 240 112.179 240 125.176C240 130.123 239.598 131.493 237.545 133.545C234.369 136.722 229.7 136.791 226.617 133.708" />
    <glyph glyph-name="bb-business-contact-32"
      unicode="&#xEA42;"
      horiz-adv-x="256" d="M117.026 246.438C94.119 241.472 73.508 221.975 66.35 198.5C64.143 191.264 63.848 167.082 65.85 157.5C70.361 135.904 79.914 117.624 93.548 104.5L98.743 99.5L65.732 81.5C28.77 61.345 24.092 57.941 19.405 47.791C16.538 41.582 16.496 41.229 16.178 20.75L15.855 0L132 0L248.145 0L247.822 20.75C247.504 41.229 247.462 41.582 244.595 47.791C239.908 57.941 235.23 61.345 198.268 81.5L165.257 99.5L170.452 104.5C180.57 114.24 189.089 127.815 193.897 141.861C199.418 157.992 201.343 178.71 198.648 193C194.808 213.355 180.725 231.584 161.5 241.083C148.081 247.713 131.899 249.662 117.026 246.438M143.566 238.916C146.83 238.32 153.29 236.063 157.922 233.9C164.869 230.657 167.758 228.527 174.422 221.734C183.5 212.481 188.24 204.073 190.566 193.099C192.521 183.877 192.568 184.048 188.25 184.641C175.903 186.337 163.646 192.413 155.582 200.836L151.664 204.929L147.775 201.416C134.473 189.398 114.909 183.047 95.183 184.343C84.653 185.035 74.087 187.609 73.294 189.676C72.491 191.77 74.739 199.5 78.291 206.855C80.516 211.462 83.977 216.025 89.578 221.734C96.23 228.515 99.146 230.667 106.091 233.922C118.538 239.754 130.357 241.329 143.566 238.916M157.603 188.39C165.781 182.553 175.591 178.417 184.899 176.88L192.171 175.679L191.474 168.589C188.087 134.147 167.605 103.82 143.485 97.538C119.6 91.317 96.907 104.511 82.494 133C76.545 144.76 72.022 163.332 72.006 176.073L72 180.646L79.25 178.645C84.964 177.067 89.572 176.644 101 176.647C114.169 176.65 116.28 176.906 124 179.441C133.294 182.494 139.095 185.263 146 189.942C148.475 191.619 150.644 192.993 150.821 192.996C150.997 192.998 154.049 190.925 157.603 188.39M120.219 89.511C131.255 86.909 144.601 88.242 153.781 92.863L157.5 94.735L193.198 75.118C212.832 64.328 230.089 54.375 231.547 53C233.005 51.625 235.385 48.25 236.835 45.5C239.316 40.798 239.494 39.53 239.823 24.25L240.172 8L188.086 8L136 8L136 36L136 64L132 64L128 64L128 36L128 8L75.914 8L23.828 8L24.177 24.25C24.506 39.53 24.684 40.798 27.165 45.5C28.615 48.25 30.995 51.625 32.453 53C33.911 54.375 51.168 64.328 70.802 75.118L106.5 94.735L110.219 92.863C112.264 91.834 116.764 90.325 120.219 89.511" />
    <glyph glyph-name="bb-ticket-32"
      unicode="&#xEA43;"
      horiz-adv-x="256" d="M8 184.139L8 152.278L13.94 151.739C36.129 149.727 47.48 124.966 34.198 107.547C29.326 101.158 21.841 96.977 14.004 96.267L8 95.722L8 63.861L8 32L132 32L256 32L256 63.861L256 95.722L249.996 96.267C235.782 97.555 224 109.982 224 123.685C224 138.333 235.202 150.392 250.06 151.739L256 152.278L256 184.139L256 216L132 216L8 216L8 184.139M247.768 183.794L247.5 159.589L243.746 158.809C233.711 156.726 224.069 148.714 219.301 138.5C216.911 133.381 216.504 131.252 216.529 124C216.553 116.859 217.001 114.541 219.33 109.5C224.009 99.372 232.333 92.369 243.75 88.954L248 87.683L248 63.842L248 40L132 40L16 40L16 63.842L16 87.683L20.25 88.954C31.667 92.369 39.991 99.372 44.67 109.5C46.999 114.541 47.447 116.859 47.471 124C47.496 131.252 47.089 133.381 44.699 138.5C39.931 148.714 30.289 156.726 20.254 158.809L16.5 159.589L16.232 183.794L15.964 208L132 208L248.036 208L247.768 183.794M80 148L80 144L132 144L184 144L184 148L184 152L132 152L80 152L80 148M80 100L80 96L132 96L184 96L184 100L184 104L132 104L80 104L80 100" />
    <glyph glyph-name="bb-support-32"
      unicode="&#xEA44;"
      horiz-adv-x="256" d="M112.357 246.429C94.024 243.349 71.435 233.785 57.628 223.257C15.485 191.121 -1.922 136.444 14.068 86.427C27.825 43.393 62.915 11.973 108 2.32C119.781 -0.203 144.219 -0.203 156 2.32C201.008 11.957 236.196 43.459 249.926 86.408C264.099 130.742 252.478 178.497 219.487 211.487C200.827 230.148 177.136 242.212 150.752 246.491C139.551 248.308 123.389 248.282 112.357 246.429M147.566 238.928C159.285 237.298 171.406 233.516 182.75 227.95C188.387 225.184 193 222.597 193 222.201C193 221.806 183.884 212.374 172.743 201.242L152.485 181.003L145.493 182.484C136.603 184.367 127.397 184.367 118.507 182.484L111.515 181.003L91.257 201.242C80.116 212.374 71 221.806 71 222.201C71 222.597 75.612 225.186 81.25 227.955C102.202 238.244 125.163 242.043 147.566 238.928M84.401 197.099L104.283 177.198L101.162 175.584C96.52 173.183 85.436 162.452 81.796 156.835L78.606 151.912L58.803 171.697C47.911 182.578 39 192.12 39 192.9C39 194.752 61.248 217 63.1 217C63.88 217 73.466 208.045 84.401 197.099M213.66 205.66C219.897 199.422 225 193.681 225 192.9C225 192.12 216.089 182.578 205.197 171.697L185.394 151.912L182.204 156.835C178.564 162.452 167.48 173.183 162.838 175.584L159.717 177.198L179.599 197.099C190.534 208.045 200.12 217 200.9 217C201.681 217 207.422 211.897 213.66 205.66M54.758 164.743L74.997 144.485L73.516 137.493C71.633 128.603 71.633 119.397 73.516 110.507L74.997 103.515L54.758 83.257C43.626 72.116 34.181 63 33.769 63C32.438 63 24.316 80.254 21.611 88.828C14.31 111.968 14.305 135.927 21.595 159.172C24.145 167.301 32.55 185 33.86 185C34.222 185 43.626 175.884 54.758 164.743M235.295 176.25C252.024 143.704 252.024 104.296 235.295 71.75C232.821 66.937 230.501 63 230.14 63C229.778 63 220.374 72.116 209.242 83.257L189.003 103.515L190.484 110.507C192.367 119.397 192.367 128.603 190.484 137.493L189.003 144.485L209.242 164.743C220.374 175.884 229.778 185 230.14 185C230.501 185 232.821 181.062 235.295 176.25M143.825 174.479C166.229 169.198 182.122 150.476 183.669 127.543C184.696 112.328 179.356 98.118 168.627 87.511C141.34 60.537 96.969 70.372 82.957 106.5C81.003 111.537 80.63 114.347 80.63 124C80.63 133.653 81.003 136.463 82.957 141.5C89.35 157.982 102.161 169.774 118.259 173.992C127.073 176.302 135.419 176.461 143.825 174.479M80.489 93.02C82.827 88.5 93.622 77.388 99.165 73.796L104.088 70.606L84.303 50.803C73.422 39.911 63.924 31 63.197 31C61.509 31 41.81 50.118 39.986 53.527C38.633 56.054 38.915 56.397 58.547 76.047C69.511 87.021 78.586 96 78.715 96C78.843 96 79.642 94.659 80.489 93.02M225 55.1C225 53.248 202.752 31 200.9 31C200.12 31 190.578 39.911 179.697 50.803L159.912 70.606L164.835 73.796C170.452 77.436 181.183 88.52 183.584 93.162L185.198 96.283L205.099 76.401C216.045 65.466 225 55.88 225 55.1M118.5 65.517C127.396 63.633 136.601 63.633 145.493 65.516L152.485 66.997L172.743 46.758C183.884 35.626 193 26.222 193 25.86C193 24.55 175.301 16.145 167.172 13.595C143.927 6.305 119.971 6.31 96.828 13.61C89.586 15.895 76.579 21.826 72 24.932C70.785 25.756 74.393 29.849 90.991 46.475C102.261 57.764 111.486 67 111.491 67C111.496 67 114.651 66.333 118.5 65.517" />
    <glyph glyph-name="bb-cart-return-32"
      unicode="&#xEA45;"
      horiz-adv-x="256" d="M16 244L16 240L28.29 240L40.579 240L52.54 160.001L64.5 80.003L148 80.002L231.5 80.001L239.797 142.751C244.36 177.263 248.072 206.062 248.047 206.75C248.011 207.707 243.308 208 228 208L208 208L208 204L208 200L223.5 200C232.025 200 239.021 199.663 239.046 199.25C239.072 198.837 235.809 173.638 231.796 143.25L224.5 88.001L147.942 88L71.385 88L59.442 167.999L47.5 247.999L31.75 247.999L16 248L16 244M104.997 222.497L86.513 203.993L105.247 185.26L123.981 166.526L126.722 169.268L129.464 172.009L115.495 186.005L101.527 200L130.763 200L160 200L160 166L160 132L164 132L168 132L168 170L168 208L134.763 208L101.527 208L115.468 221.968L129.409 235.936L127.03 238.468C125.722 239.861 124.388 241 124.066 241C123.743 241 115.162 232.673 104.997 222.497M77.5 55.12C64.867 51.785 56 40.6 56 28C56 12.942 68.942 0 84 0C99.058 0 112 12.942 112 28C112 42.362 100.756 54.359 86.254 55.471C83.089 55.714 79.15 55.556 77.5 55.12M213.5 55.12C200.867 51.785 192 40.6 192 28C192 12.942 204.942 0 220 0C235.058 0 248 12.942 248 28C248 42.362 236.756 54.359 222.254 55.471C219.089 55.714 215.15 55.556 213.5 55.12M94.531 44.673C96.542 43.306 99.379 40.458 100.835 38.344C103.036 35.147 103.48 33.406 103.471 28C103.461 22.514 103.013 20.837 100.596 17.249C96.285 10.849 91.83 8.5 84 8.5C76.17 8.5 71.715 10.849 67.404 17.249C64.987 20.837 64.539 22.514 64.529 28C64.52 33.406 64.964 35.147 67.165 38.344C69.873 42.276 74.999 46.329 78.525 47.325C82.741 48.515 90.854 47.171 94.531 44.673M230.531 44.673C232.542 43.306 235.379 40.458 236.835 38.344C239.036 35.147 239.48 33.406 239.471 28C239.461 22.514 239.013 20.837 236.596 17.249C232.285 10.849 227.83 8.5 220 8.5C212.17 8.5 207.715 10.849 203.404 17.249C200.987 20.837 200.539 22.514 200.529 28C200.52 33.406 200.964 35.147 203.165 38.344C205.873 42.276 210.999 46.329 214.525 47.325C218.741 48.515 226.854 47.171 230.531 44.673" />
    <glyph glyph-name="bb-users-wm-32"
      unicode="&#xEA46;"
      horiz-adv-x="256" d="M152.089 238.522C145.5 236.929 134.992 232.031 135.022 230.566C135.034 229.98 135.899 228.388 136.944 227.029L138.843 224.557L144.671 227.267C153.034 231.155 159.134 232.37 166.731 231.661C186.586 229.807 203.174 214.855 207.01 195.355C207.773 191.476 208.053 183.017 207.787 171.895C207.428 156.946 207.059 153.71 205.162 148.881C200.836 137.872 194.497 131.065 181.46 123.436C179.705 122.408 179.704 121.926 181.432 109.436C183.436 94.959 184.764 90.855 188.166 88.628C189.45 87.787 201.73 84.368 215.456 81.03C229.182 77.691 241.482 74.259 242.79 73.402C247.326 70.43 248 66.693 248 44.532L248 24L224 24L200 24L200 20L200 16L228 16L256 16L255.978 41.75C255.954 70.143 255.542 72.414 249.362 78.211C245.573 81.765 242.589 82.742 216.5 88.966C203.448 92.08 193.831 94.883 192.855 95.857C191.795 96.916 190.707 101.118 189.791 107.684L188.372 117.869L194.195 121.975C204.323 129.117 212.232 141.286 214.879 153.799C216.542 161.661 216.29 191.144 214.494 198.76C212.159 208.666 207.529 216.696 199.611 224.577C186.437 237.687 169.363 242.698 152.089 238.522M81 222.909C69.69 220.716 55.838 211.24 48.673 200.794C42.48 191.765 40.895 185.611 39.973 167C38.88 144.929 35.893 134.791 26.432 121.037C23.059 116.134 22.945 115.718 24.509 113.99C30.405 107.475 42.169 102.704 56.857 100.871C66.04 99.725 66.995 99.411 66.947 97.553C66.855 94.002 64.387 80.053 63.734 79.401C63.392 79.058 53.749 76.096 42.306 72.817C19.493 66.282 14.344 63.9 10.837 58.259C8.635 54.717 8.481 53.388 8.174 35.25L7.847 16L92 16L176.153 16L175.826 35.25C175.519 53.388 175.365 54.717 173.163 58.259C169.656 63.9 164.507 66.282 141.694 72.817C130.251 76.096 120.608 79.058 120.266 79.401C119.613 80.053 117.145 94.002 117.053 97.553C117.005 99.411 117.96 99.725 127.143 100.871C141.763 102.696 153.598 107.478 159.423 113.915C160.9 115.546 160.683 116.186 156.495 122.562C147.714 135.931 144.021 149.233 144.008 167.54C143.995 184.543 139.739 195.947 129.242 207.107C116.82 220.314 98.526 226.306 81 222.909M106 213.307C113.062 210.72 122.53 203.503 126.939 197.346C133.561 188.098 135.041 182.729 135.992 164.503C136.946 146.222 139.325 136.748 146.088 124.297C148.24 120.336 150 116.823 150 116.492C150 116.16 147.637 114.808 144.75 113.487C137.945 110.373 122.329 107.702 113.752 108.185C108.059 108.506 107.069 108.325 107.423 107.033C107.653 106.19 108.605 99.875 109.539 93C111.447 78.946 112.786 74.834 116.166 72.644C117.45 71.813 127.5 68.572 138.5 65.442C161.387 58.929 163.368 58.084 166.04 53.701C167.717 50.952 167.993 48.627 167.996 37.25L168 24L92 24L16 24L16.004 37.25C16.007 48.627 16.283 50.952 17.96 53.701C20.632 58.084 22.613 58.929 45.5 65.442C56.5 68.572 66.55 71.813 67.834 72.644C71.214 74.834 72.553 78.946 74.461 93C75.395 99.875 76.347 106.19 76.577 107.033C76.931 108.325 75.941 108.506 70.248 108.185C61.671 107.702 46.055 110.373 39.25 113.487C36.362 114.808 34 116.179 34 116.532C34 116.886 35.548 119.948 37.44 123.338C39.333 126.727 42.313 133.775 44.063 139C46.894 147.45 47.333 150.323 48.035 165C48.557 175.922 49.372 183.01 50.444 185.967C55.664 200.357 67.85 211.45 82 214.693C88.66 216.22 99.807 215.576 106 213.307" />
    <glyph glyph-name="bb-flag-points-16"
      unicode="&#xEA47;"
      horiz-adv-x="256" d="M34.455 253.545L32 251.091L32 128.191L32 5.292L34.452 2.646C37.744 -0.906 42.256 -0.906 45.548 2.646L48 5.292L48 50.646L48 96L133.364 96L218.727 96L221.364 98.636C222.814 100.086 224 102.311 224 103.581C224 104.85 217.027 119.87 208.504 136.959L193.009 168.03L208.504 199.009C217.027 216.047 224 231.136 224 232.539C224 233.943 222.895 236.195 221.545 237.545L219.091 240L133.545 240L48 240L48 245.545C48 252.218 45.106 256 40 256C38.052 256 36.002 255.093 34.455 253.545M189.486 196.936C182.069 182.051 176 169.03 176 168C176 166.97 182.069 153.949 189.486 139.064L202.973 112L125.486 112L48 112L48 168L48 224L125.486 224L202.973 224L189.486 196.936" />
    <glyph glyph-name="bb-lock-16"
      unicode="&#xEA48;"
      horiz-adv-x="256" d="M114.5 254.567C105.017 252.344 100.29 250.347 92.932 245.455C83.74 239.344 75.716 230.252 70.908 220.5C65.215 208.953 64.038 201.904 64.017 179.25L64 160L50.366 160C42.482 160 34.996 159.482 32.616 158.771C27.002 157.095 18.537 148.762 17.102 143.5C15.483 137.563 15.587 22.13 17.216 16.616C18.839 11.123 27.123 2.839 32.616 1.216C38.546 -0.536 217.454 -0.536 223.384 1.216C228.877 2.839 237.161 11.123 238.784 16.616C240.413 22.13 240.517 137.563 238.898 143.5C237.463 148.762 228.998 157.095 223.384 158.771C221.004 159.482 213.518 160 205.634 160L192 160L191.983 179.25C191.962 202.06 190.792 208.937 184.9 220.889C177.61 235.678 163.139 248.044 147.282 253.034C138.535 255.787 122.832 256.521 114.5 254.567M137.447 238.925C146.818 237.193 153.765 233.339 161.552 225.552C173.713 213.39 176 205.936 176 178.451L176 160L128 160L80 160L80 178.451C80 206.064 82.251 213.419 94.42 225.568C106.643 237.769 120.473 242.063 137.447 238.925M221.545 141.545L224 139.091L224 80.191L224 21.292L221.548 18.646L219.095 16L128 16L36.905 16L34.452 18.646L32 21.292L32 80.191L32 139.091L34.455 141.545L36.909 144L128 144L219.091 144L221.545 141.545M120.734 110.97C111.404 108.627 103.095 101.89 98.812 93.193C96.946 89.404 96.5 86.862 96.5 80C96.5 69.879 98.692 64.466 105.579 57.579C116.752 46.406 133.733 44.939 146.421 54.051C167.042 68.86 163.331 99.659 139.744 109.47C134.969 111.456 125.609 112.195 120.734 110.97M134.655 94.359C144.696 89.595 146.921 77.206 139.194 69.084C135.075 64.753 130.43 63.321 124.259 64.479C119.492 65.373 113.351 71.614 112.435 76.493C109.956 89.707 122.761 100.003 134.655 94.359" />
    <glyph glyph-name="bb-award-32"
      unicode="&#xEA49;"
      horiz-adv-x="256" d="M118.831 247.041C87.915 241.4 62.708 220.245 52.924 191.729C49.614 182.083 48.015 173.05 48.015 164C48.015 144.919 55.885 123.481 67.89 109.857L71.981 105.214L72.241 55.674L72.5 6.134L101.476 18.567C117.413 25.405 131.149 31 132 31C132.851 31 146.587 25.405 162.524 18.567L191.5 6.134L191.759 55.674L192.019 105.214L196.11 109.857C208.115 123.481 215.985 144.919 215.985 164C215.985 201.822 190.008 235.162 152.5 245.479C145.6 247.377 125.727 248.299 118.831 247.041M146.792 238.422C175.026 232.644 196.332 213.129 205.146 184.975C207.114 178.686 207.486 175.357 207.486 164C207.486 152.643 207.114 149.314 205.146 143.025C193.106 104.564 156.318 82.041 117.628 89.444C89.642 94.799 67.685 114.817 58.854 143.025C56.886 149.314 56.514 152.643 56.514 164C56.514 175.357 56.886 178.686 58.854 184.975C70.933 223.56 108.336 246.293 146.792 238.422M99.201 86.851C111.922 81.675 117.438 80.628 132 80.628C146.562 80.628 152.078 81.675 164.799 86.851C168.648 88.418 174.543 91.533 177.899 93.774L184 97.848L184 57.962L184 18.076L175.75 21.62C171.213 23.569 159.512 28.556 149.75 32.703L132 40.243L114.25 32.703C104.487 28.556 92.787 23.569 88.25 21.62L80 18.076L80 57.962L80 97.848L86.101 93.774C89.457 91.533 95.352 88.418 99.201 86.851" />
    <glyph glyph-name="bb-award-32-2"
      unicode="&#xEA4A;"
      horiz-adv-x="256" d="M118.831 247.041C110.657 245.55 102.738 242.912 94.904 239.072C51.888 217.987 35.214 164.145 58.913 122.852L62.729 116.203L42.03 73.852C30.645 50.558 21.818 31.379 22.415 31.23C23.012 31.082 32.468 32.769 43.429 34.98C54.39 37.191 64.128 39 65.068 39C66.115 39 71.724 32.39 79.538 21.949C86.556 12.571 92.657 5.259 93.095 5.699C93.532 6.14 101.511 22.925 110.825 43L127.759 79.5L132 79.5L136.241 79.5L153.175 43C162.489 22.925 170.468 6.14 170.905 5.699C171.343 5.259 177.444 12.571 184.462 21.949C192.276 32.39 197.885 39 198.932 39C199.872 39 209.61 37.191 220.571 34.98C231.532 32.769 240.988 31.082 241.585 31.23C242.182 31.379 233.355 50.558 221.97 73.852L201.271 116.203L205.087 122.852C211.852 134.639 215.985 150.245 215.985 164C215.985 201.822 190.008 235.162 152.5 245.479C145.6 247.377 125.727 248.299 118.831 247.041M146.792 238.422C175.026 232.644 196.332 213.129 205.146 184.975C207.114 178.686 207.486 175.357 207.486 164C207.486 152.643 207.114 149.314 205.146 143.025C193.106 104.564 156.318 82.041 117.628 89.444C89.642 94.799 67.685 114.817 58.854 143.025C56.886 149.314 56.514 152.643 56.514 164C56.514 175.357 56.886 178.686 58.854 184.975C70.933 223.56 108.336 246.293 146.792 238.422M124.355 199.017C118.056 197.685 110.953 193.65 106.427 188.834C101.132 183.199 99.521 180.494 97.59 173.991C93.674 160.806 97.41 147.408 107.644 137.928C112.836 133.119 115.676 131.471 122.009 129.59C148.907 121.602 174.401 147.082 166.416 173.972C162.158 188.308 149.851 198.269 135 199.399C131.425 199.671 126.635 199.499 124.355 199.017M144.262 188.904C150.096 185.98 153.725 182.387 156.789 176.5C160.526 169.318 160.504 158.653 156.735 151.362C146.203 130.984 117.884 130.984 107.235 151.362C103.563 158.389 103.407 169.306 106.883 176C110.978 183.885 117.182 188.924 125.5 191.12C130.178 192.355 139.596 191.243 144.262 188.904M88.673 92.153C96.041 87.805 105.385 84.041 113.75 82.05C116.638 81.363 119 80.54 119 80.222C119 78.827 91.641 21 90.981 21C90.576 21 85.684 27.075 80.109 34.5C74.535 41.925 69.383 48 68.661 48C67.938 48 60.48 46.614 52.087 44.92C43.694 43.226 36.615 42.052 36.356 42.311C35.911 42.755 38.233 47.69 59.417 91.336L68.074 109.172L74.96 102.677C78.747 99.104 84.918 94.368 88.673 92.153M212.454 75.175C221.104 57.396 227.955 42.622 227.678 42.345C227.401 42.067 220.306 43.226 211.913 44.92C203.52 46.614 196.068 48 195.353 48C194.638 48 189.276 41.663 183.438 33.917L172.822 19.835L159.406 48.647C152.027 64.493 145.755 78.198 145.468 79.101C145.053 80.409 146.235 81.067 151.274 82.333C166.302 86.108 180.872 94.137 190.456 103.926C193.182 106.71 195.708 108.653 196.069 108.244C196.429 107.835 203.803 92.954 212.454 75.175" />
    <glyph glyph-name="bb-check-all-16"
      unicode="&#xEA4B;"
      horiz-adv-x="256" d="M179.323 222.344C178.15 221.33 150.092 183.15 116.97 137.5C83.848 91.85 56.35 54.068 55.864 53.54C55.323 52.953 46.515 61.013 33.188 74.29C13.776 93.629 11.042 96 8.153 96C3.821 96 0 92.193 0 87.876C0 85.009 2.788 81.859 25.75 58.787C39.913 44.556 52.513 32.659 53.75 32.348C54.988 32.037 57.083 32.055 58.407 32.387C61.656 33.203 190.914 210.693 191.675 215.384C192.705 221.731 184.172 226.54 179.323 222.344M210.455 189.545C207.266 186.357 207.265 182.085 210.452 178.646L212.905 176L232 176L251.095 176L253.548 178.646C256.735 182.085 256.734 186.357 253.545 189.545C251.111 191.98 250.936 192 232 192C213.064 192 212.889 191.98 210.455 189.545M162.455 125.545C159.266 122.357 159.265 118.085 162.452 114.646L164.905 112L208 112L251.095 112L253.548 114.646C256.735 118.085 256.734 122.357 253.545 125.545L251.091 128L208 128L164.909 128L162.455 125.545M122.455 61.545C119.266 58.357 119.265 54.085 122.452 50.646L124.905 48L188 48L251.095 48L253.548 50.646C256.735 54.085 256.734 58.357 253.545 61.545L251.091 64L188 64L124.909 64L122.455 61.545" />
    <glyph glyph-name="bb-bookmark-32"
      unicode="&#xEA4C;"
      horiz-adv-x="256" d="M32 124L32 0L124.343 0L216.685 0L221.093 2.327C223.517 3.606 226.85 6.57 228.5 8.913L231.5 13.172L231.5 124L231.5 234.828L228.5 239.087C226.85 241.43 223.517 244.394 221.093 245.673L216.685 248L124.343 248L32 248L32 124M72 193.979L72 147.958L90 161.5L108 175.042L126 161.5L144 147.958L144 193.979L144 240L164 240L184 240L184 124L184 8L112 8L40 8L40 124L40 240L56 240L72 240L72 193.979M136 201.973L136 163.947L122 174.5L108 185.053L94 174.5L80 163.947L80 201.973L80 240L108 240L136 240L136 201.973M220.234 236.231L223.5 232.962L223.5 123.904L223.5 14.846L219.765 11.423L216.029 8L204.015 8L192 8L192 124.082L192 240.163L204.484 239.832L216.967 239.5L220.234 236.231" />
  </font>
</defs>
</svg>
